<?xml version="1.0" encoding="UTF-8" standalone="no"?>
<!-- Created with Inkscape (http://www.inkscape.org/) -->

<svg
   xmlns:osb="http://www.openswatchbook.org/uri/2009/osb"
   xmlns:dc="http://purl.org/dc/elements/1.1/"
   xmlns:cc="http://creativecommons.org/ns#"
   xmlns:rdf="http://www.w3.org/1999/02/22-rdf-syntax-ns#"
   xmlns:svg="http://www.w3.org/2000/svg"
   xmlns="http://www.w3.org/2000/svg"
   xmlns:xlink="http://www.w3.org/1999/xlink"
   xmlns:sodipodi="http://sodipodi.sourceforge.net/DTD/sodipodi-0.dtd"
   xmlns:inkscape="http://www.inkscape.org/namespaces/inkscape"
   id="svg2985"
   version="1.1"
   inkscape:version="0.48.5 r10040"
   width="4092"
   height="5128"
   sodipodi:docname="karlderninja_coderdojoka.svg"
   inkscape:export-filename="C:\Projekte\git\coderdojoka\Materialien\Vorlagen\karlderninja_coderdojoka_2.png"
   inkscape:export-xdpi="90"
   inkscape:export-ydpi="90">
  <title
     id="title6938">Karl der Ninja</title>
  <metadata
     id="metadata2991">
    <rdf:RDF>
      <cc:Work
         rdf:about="">
        <dc:format>image/svg+xml</dc:format>
        <dc:type
           rdf:resource="http://purl.org/dc/dcmitype/StillImage" />
        <dc:title>Karl der Ninja</dc:title>
        <dc:creator>
          <cc:Agent>
            <dc:title>CoderDojo Karlsruhe</dc:title>
          </cc:Agent>
        </dc:creator>
      </cc:Work>
    </rdf:RDF>
  </metadata>
  <defs
     id="defs2989">
    <inkscape:path-effect
       effect="skeletal"
       id="path-effect3960"
       is_visible="true"
       pattern="M 0,5 C 0,2.24 2.24,0 5,0 7.76,0 10,2.24 10,5 10,7.76 7.76,10 5,10 2.24,10 0,7.76 0,5 z"
       copytype="single_stretched"
       prop_scale="0.6"
       scale_y_rel="false"
       spacing="0"
       normal_offset="0"
       tang_offset="0"
       prop_units="false"
       vertical_pattern="false"
       fuse_tolerance="0" />
    <inkscape:path-effect
       effect="skeletal"
       id="path-effect3952"
       is_visible="true"
       pattern="M 0,5 C 0,2.24 2.24,0 5,0 7.76,0 10,2.24 10,5 10,7.76 7.76,10 5,10 2.24,10 0,7.76 0,5 z"
       copytype="single_stretched"
       prop_scale="0.8"
       scale_y_rel="false"
       spacing="0"
       normal_offset="0"
       tang_offset="0"
       prop_units="false"
       vertical_pattern="false"
       fuse_tolerance="0" />
    <inkscape:path-effect
       effect="skeletal"
       id="path-effect3948"
       is_visible="true"
       pattern="M 0,0 0,10 10,5 z"
       copytype="single_stretched"
       prop_scale="1"
       scale_y_rel="false"
       spacing="0"
       normal_offset="0"
       tang_offset="0"
       prop_units="false"
       vertical_pattern="false"
       fuse_tolerance="0" />
    <inkscape:path-effect
       effect="skeletal"
       id="path-effect3940"
       is_visible="true"
       pattern="M 0,0 0,10 10,5 z"
       copytype="single_stretched"
       prop_scale="1"
       scale_y_rel="false"
       spacing="0"
       normal_offset="0"
       tang_offset="0"
       prop_units="false"
       vertical_pattern="false"
       fuse_tolerance="0" />
    <inkscape:path-effect
       effect="skeletal"
       id="path-effect3923"
       is_visible="true"
       pattern="M 0,0 0,10 10,5 z"
       copytype="single_stretched"
       prop_scale="1"
       scale_y_rel="false"
       spacing="0"
       normal_offset="0"
       tang_offset="0"
       prop_units="false"
       vertical_pattern="false"
       fuse_tolerance="0" />
    <inkscape:path-effect
       effect="skeletal"
       id="path-effect3919"
       is_visible="true"
       pattern="M 0,0 0,10 10,5 z"
       copytype="single_stretched"
       prop_scale="1"
       scale_y_rel="false"
       spacing="0"
       normal_offset="0"
       tang_offset="0"
       prop_units="false"
       vertical_pattern="false"
       fuse_tolerance="0" />
    <inkscape:path-effect
       effect="skeletal"
       id="path-effect3915"
       is_visible="true"
       pattern="M 0,0 0,10 10,5 z"
       copytype="single_stretched"
       prop_scale="2"
       scale_y_rel="false"
       spacing="0"
       normal_offset="0"
       tang_offset="0"
       prop_units="false"
       vertical_pattern="false"
       fuse_tolerance="0" />
    <inkscape:path-effect
       effect="skeletal"
       id="path-effect3902"
       is_visible="true"
       pattern="M 0,0 0,10 10,5 z"
       copytype="single_stretched"
       prop_scale="1"
       scale_y_rel="false"
       spacing="0"
       normal_offset="0"
       tang_offset="0"
       prop_units="false"
       vertical_pattern="false"
       fuse_tolerance="0" />
    <inkscape:path-effect
       effect="skeletal"
       id="path-effect3898"
       is_visible="true"
       pattern="M 0,5 C 0,2.24 2.24,0 5,0 7.76,0 10,2.24 10,5 10,7.76 7.76,10 5,10 2.24,10 0,7.76 0,5 z"
       copytype="single_stretched"
       prop_scale="1"
       scale_y_rel="false"
       spacing="0"
       normal_offset="0"
       tang_offset="0"
       prop_units="false"
       vertical_pattern="false"
       fuse_tolerance="0" />
    <inkscape:path-effect
       effect="skeletal"
       id="path-effect3894"
       is_visible="true"
       pattern="M 0,5 C 0,2.24 2.24,0 5,0 7.76,0 10,2.24 10,5 10,7.76 7.76,10 5,10 2.24,10 0,7.76 0,5 z"
       copytype="single_stretched"
       prop_scale="0.89"
       scale_y_rel="false"
       spacing="0"
       normal_offset="0"
       tang_offset="0"
       prop_units="false"
       vertical_pattern="false"
       fuse_tolerance="0" />
    <inkscape:path-effect
       effect="skeletal"
       id="path-effect3886"
       is_visible="true"
       pattern="M 0,0 0,10 10,5 z"
       copytype="single_stretched"
       prop_scale="1"
       scale_y_rel="false"
       spacing="0"
       normal_offset="0"
       tang_offset="0"
       prop_units="false"
       vertical_pattern="false"
       fuse_tolerance="0" />
    <inkscape:path-effect
       effect="skeletal"
       id="path-effect3882"
       is_visible="true"
       pattern="M 0,0 0,10 10,5 z"
       copytype="single_stretched"
       prop_scale="1"
       scale_y_rel="false"
       spacing="0"
       normal_offset="0"
       tang_offset="0"
       prop_units="false"
       vertical_pattern="false"
       fuse_tolerance="0" />
    <inkscape:path-effect
       effect="skeletal"
       id="path-effect3878"
       is_visible="true"
       pattern="M 0,0 0,10 10,5 z"
       copytype="single_stretched"
       prop_scale="1"
       scale_y_rel="false"
       spacing="0"
       normal_offset="0"
       tang_offset="0"
       prop_units="false"
       vertical_pattern="false"
       fuse_tolerance="0" />
    <inkscape:path-effect
       effect="skeletal"
       id="path-effect3874"
       is_visible="true"
       pattern="M 0,0 0,10 10,5 z"
       copytype="single_stretched"
       prop_scale="1"
       scale_y_rel="false"
       spacing="0"
       normal_offset="0"
       tang_offset="0"
       prop_units="false"
       vertical_pattern="false"
       fuse_tolerance="0" />
    <inkscape:path-effect
       effect="skeletal"
       id="path-effect3870"
       is_visible="true"
       pattern="M 0,0 0,10 10,5 z"
       copytype="single_stretched"
       prop_scale="2"
       scale_y_rel="false"
       spacing="0"
       normal_offset="0"
       tang_offset="0"
       prop_units="false"
       vertical_pattern="false"
       fuse_tolerance="0" />
    <inkscape:path-effect
       effect="skeletal"
       id="path-effect3866"
       is_visible="true"
       pattern="M 0,0 0,10 10,5 z"
       copytype="single_stretched"
       prop_scale="1"
       scale_y_rel="false"
       spacing="0"
       normal_offset="0"
       tang_offset="0"
       prop_units="false"
       vertical_pattern="false"
       fuse_tolerance="0" />
    <inkscape:path-effect
       effect="skeletal"
       id="path-effect3862"
       is_visible="true"
       pattern="M 0,0 0,10 10,5 z"
       copytype="single_stretched"
       prop_scale="2"
       scale_y_rel="false"
       spacing="0"
       normal_offset="0"
       tang_offset="0"
       prop_units="false"
       vertical_pattern="false"
       fuse_tolerance="0" />
    <inkscape:path-effect
       effect="skeletal"
       id="path-effect3058"
       is_visible="true"
       pattern="m 1456.0175,2170.2747 96.474,-32.7742 30.3767,26.3307 -70.6817,15.2451 z"
       copytype="single_stretched"
       prop_scale="1"
       scale_y_rel="false"
       spacing="0"
       normal_offset="0"
       tang_offset="0"
       prop_units="false"
       vertical_pattern="false"
       fuse_tolerance="0"
       pattern-nodetypes="ccccc" />
    <linearGradient
       id="linearGradient5447"
       osb:paint="gradient">
      <stop
         style="stop-color:#828281;stop-opacity:1;"
         offset="0"
         id="stop5449" />
      <stop
         style="stop-color:#3d3832;stop-opacity:1;"
         offset="1"
         id="stop5451" />
    </linearGradient>
    <linearGradient
       id="linearGradient5439">
      <stop
         style="stop-color:#4b453d;stop-opacity:1;"
         offset="0"
         id="stop5441" />
      <stop
         style="stop-color:#4b453d;stop-opacity:1;"
         offset="1"
         id="stop5443" />
    </linearGradient>
    <inkscape:path-effect
       effect="skeletal"
       id="path-effect5278"
       is_visible="true"
       pattern="m 1611.6814,2155.7438 16.1126,-7.2488 12.737,7.8053 -17.4562,4.0051 z"
       copytype="single_stretched"
       prop_scale="3"
       scale_y_rel="false"
       spacing="0"
       normal_offset="0"
       tang_offset="0"
       prop_units="false"
       vertical_pattern="false"
       fuse_tolerance="0"
       pattern-nodetypes="ccccc" />
    <radialGradient
       inkscape:collect="always"
       xlink:href="#linearGradient5447"
       id="radialGradient3965"
       cx="1544.3935"
       cy="2740.9714"
       fx="1544.3935"
       fy="2740.9714"
       r="700.8834"
       gradientTransform="matrix(1,0,0,0.45193509,0,1502.2302)"
       gradientUnits="userSpaceOnUse" />
  </defs>
  <sodipodi:namedview
     pagecolor="#ffffff"
     bordercolor="#666666"
     borderopacity="1"
     objecttolerance="10"
     gridtolerance="10"
     guidetolerance="10"
     inkscape:pageopacity="0"
     inkscape:pageshadow="2"
     inkscape:window-width="1366"
     inkscape:window-height="705"
     id="namedview2987"
     showgrid="false"
     inkscape:zoom="0.10101404"
     inkscape:cx="1706.3023"
     inkscape:cy="2281.7013"
     inkscape:window-x="-8"
     inkscape:window-y="-8"
     inkscape:window-maximized="1"
     inkscape:current-layer="layer3">
    <inkscape:grid
       type="xygrid"
       id="grid3911" />
  </sodipodi:namedview>
  <g
     inkscape:groupmode="layer"
     id="layer2"
     inkscape:label="Vorlage"
     style="opacity:0.5;display:none"
     sodipodi:insensitive="true">
    <image
       style="display:inline"
       width="4092"
       height="5128"
       xlink:href="file:///C:/Projekte/git/coderdojoka/Materialien/Vorlagen/karlderninja_coderdojoka.png"
       id="image2993"
       x="0"
       y="0" />
  </g>
  <g
     inkscape:groupmode="layer"
     id="layer3"
     inkscape:label="Figur-Flächen"
     style="display:inline">
    <path
       style="fill:#4b453d;fill-opacity:1;stroke:none"
       d="m 999.86098,3662.8572 -128.69498,348.9614 -252.44015,353.9111 -61.87258,111.3707 19.79922,79.1969 81.67182,12.3745 86.62162,-19.7992 170.76833,-128.695 304.41314,-249.9652 299.4633,-227.6911 329.1621,-155.9189 71.7722,-19.7993 -22.2741,163.3436 24.749,64.3475 91.5715,19.7993 96.5212,-76.722 133.6448,-210.3668 66.8224,-168.2935 7.4247,-89.0965 -19.7992,-56.9228 -19.7993,-12.3745 -287.0888,69.2973 -141.0694,56.9228 -193.0425,69.2973 -301.9382,56.9228 -197.9923,22.2741 -91.5714,-4.9498 z"
       id="path5429"
       inkscape:connector-curvature="0" />
    <path
       style="fill:#e72001;fill-opacity:1;stroke:none"
       d="m 435.583,4167.7375 170.76834,-94.0464 168.29343,-163.3436 123.74517,-178.193 56.92278,-210.3668 9.89961,-49.4981 49.49807,7.4247 0,121.2703 -89.09652,222.7413 -113.84556,183.1429 -111.37065,91.5714 -158.39382,94.0463 -86.62162,24.749 -27.22394,-19.7992 z"
       id="path6930"
       inkscape:connector-curvature="0" />
    <path
       style="fill:#fbc70e;fill-opacity:1;stroke:none"
       d="m 975.11194,3724.7298 -61.87258,-12.3746 32.17374,-150.9691 299.4633,7.4248 334.112,-32.1738 197.9922,-59.3977 158.3939,-59.3977 32.1737,59.3977 -245.0154,101.4711 -445.4826,86.6216 -284.61393,0 z"
       id="path5431"
       inkscape:connector-curvature="0" />
    <path
       style="fill:#4b453d;fill-opacity:1;stroke:none"
       d="m 1018.5122,3558.2312 231.0028,14.0001 287.0034,-38.5004 218.7526,-52.5006 152.2519,-50.7507 26.2503,-14.0001 29.7503,-119.0014 47.2506,-63.0008 197.7524,-56.0007 357.0043,-168.002 136.5016,-66.5008 47.2506,-40.2505 -5.2501,-26.2503 -143.5017,-3.5 -364.0044,42.0005 -255.503,15.7502 -243.253,106.7512 -110.2513,24.5003 -243.2529,-12.2501 -134.7516,-36.7504 -122.5015,-66.5008 -71.7508,-50.7507 -14.0002,-12.2501 -161.00194,157.5019 -229.25275,290.5035 3.50004,36.7504 105.00126,22.7503 232.75279,-29.7504 z"
       id="path5433"
       inkscape:connector-curvature="0" />
    <path
       style="fill:url(#radialGradient3965);fill-opacity:1;stroke:none;display:inline"
       d="M 1169.014,2975.4742 955.51146,2796.972 843.51011,2634.2201 l 206.50249,-87.5011 194.2523,-64.7507 276.5033,-57.7507 225.7527,0 411.255,80.5009 87.501,29.7504 -92.7511,259.0031 -182.0022,141.7517 -280.0033,117.2514 -229.2528,5.2501 -180.2521,-28.0004 z"
       id="path5435"
       inkscape:connector-curvature="0" />
    <path
       style="fill:#ddab73;fill-opacity:1;stroke:none;display:inline"
       d="m 852.26022,2634.2201 -40.25048,-133.0016 -40.25049,-208.2525 -15.75018,-110.2513 110.25132,-54.2507 271.25321,-99.7512 386.7547,-73.5008 470.7556,-22.7503 266.0032,66.5008 0,264.2531 -19.2502,269.5033 -224.0027,-57.7507 -294.0035,-49.0006 -206.5025,-5.2501 -295.7536,68.2509 -246.75291,78.7509 z"
       id="path6910"
       inkscape:connector-curvature="0" />
    <path
       style="fill:#4b453d;fill-opacity:1;stroke:none;display:inline"
       d="m 2259.2771,2000.7125 -239.7529,-64.7508 -315.0038,7.0001 -281.7533,29.7504 -285.2535,61.2507 -257.25304,84.001 -124.25149,78.751 -127.75154,217.0026 -29.75035,31.5003 -133.0016,-31.5003 122.50147,-224.0027 -225.75271,148.7518 -70.00084,-215.2526 297.50357,-71.7509 143.50172,-47.2506 -12.25014,-112.0013 92.75111,-54.2507 271.25324,-66.5007 211.7525,-28.0004 190.7523,-12.2501 292.2535,61.2507 138.2517,52.5006 -45.5005,-85.751 192.5023,119.0014 31.5003,29.7504 -33.2504,-82.251 98.0012,64.7508 z"
       id="path6916"
       inkscape:connector-curvature="0" />
    <path
       style="fill:#84390d;fill-opacity:1;stroke:none"
       d="m 730.09651,1890.8263 -47.02317,-222.7413 42.07336,79.1969 -2.4749,-314.3127 32.17374,143.5444 91.57143,-215.3166 76.722,-128.695 136.11973,-138.5946 39.5984,-14.8494 -98.99612,165.8185 39.59842,-9.8996 188.0927,-141.0695 111.3706,-45.7857 44.5483,-6.1872 -146.0193,150.9691 -32.5623,46.5498 151.3769,-53.3757 146.1267,-49.8756 515.3812,-75.2509 -294.0035,120.7515 54.2506,14.0001 294.0035,-5.25 223.4481,35.862 -186.8552,34.6486 133.6448,39.5985 103.9459,35.8861 -146.0193,44.5482 44.5483,40.8359 231.4035,118.7954 -28.4614,32.1737 -204.1796,0 100.2336,95.2838 141.0695,118.7954 23.5116,64.3475 -196.7548,-55.6853 122.5077,209.1293 -126.2201,-75.4846 77.9595,180.668 3.7123,75.4845 -122.5077,-168.2934 -128.695,-150.9691 -81.6718,-47.0232 66.8224,101.4711 -126.22,-86.6216 -118.7954,-81.6719 51.973,103.946 -143.5444,-61.8726 -170.7684,-27.2239 -118.7953,-32.1738 -188.0927,4.9498 -336.58686,49.4981 -163.34362,44.5483 z"
       id="path6920"
       inkscape:connector-curvature="0" />
    <path
       style="fill:#e61d00;fill-opacity:1;stroke:none;display:inline"
       d="m 1445.5173,1955.212 -22.7502,-68.2509 33.2504,-63.0007 56.0006,-52.5006 1.7501,-35.0005 -82.251,-8.7501 -71.7509,26.2503 -54.2506,82.251 17.5002,59.5007 87.501,63.0008 z"
       id="path6932"
       inkscape:connector-curvature="0" />
    <path
       style="fill:#f5c346;fill-opacity:1;stroke:none"
       d="m 1492.7679,1962.212 94.5011,-54.2506 26.2503,-64.7508 -17.5002,-80.501 -52.5006,-17.5002 -24.5003,-1.75 -26.2503,49.0006 -52.5006,49.0006 -14.0002,59.5007 17.5002,50.7506 z"
       id="path6936"
       inkscape:connector-curvature="0" />
    <path
       style="fill:#e4d6c5;fill-opacity:1;stroke:none;display:inline"
       d="m 1067.9192,2304.7036 c 44.9202,10.5339 95.3429,7.7867 143.546,1.9065 45.4552,-7.6313 74.5958,-25.4592 107.6583,-40.8359 22.8345,-17.2469 28.1096,-43.7792 28.4614,-59.3977 l -32.1737,-29.6988 -56.9228,-8.6622 -96.5212,35.8861 -68.0599,29.6989 -34.6486,21.0366 -20.418,24.7491 z"
       id="path3839"
       inkscape:connector-curvature="0"
       sodipodi:nodetypes="ccccccccccc" />
    <path
       style="fill:#e4d6c5;fill-opacity:1;stroke:none;display:inline"
       d="m 1977.4478,2219.9885 c -11.7797,8.2189 -58.0343,16.6836 -90.9527,16.0869 -38.2653,0.087 -70.6829,-3.3584 -105.1834,-11.7558 -34.5005,-8.3974 -52.8165,-23.9055 -63.7287,-51.3543 l 25.3677,-31.555 22.8929,-14.8494 97.7587,-0.6187 108.277,1.8561 71.7722,3.0937 14.8494,27.2239 -25.3677,25.9865 -33.4113,23.5116 c 0,0.1516 -10.4943,4.1556 -22.2741,12.3745 z"
       id="path3855"
       inkscape:connector-curvature="0"
       sodipodi:nodetypes="zczcccccccccz" />
  </g>
  <g
     inkscape:groupmode="layer"
     id="layer1"
     inkscape:label="Figur-Kontur"
     style="display:inline">
    <path
       style="fill:none;stroke:#000000;stroke-width:30;stroke-linecap:butt;stroke-linejoin:miter;stroke-miterlimit:4;stroke-opacity:1;stroke-dasharray:none"
       d="m 1008.0121,3206.4769 c 141.2947,-30.224 309.9217,-56.1931 411.255,61.2507 28.5836,33.0389 -268.3366,75.3144 -406.0049,89.2511 -126.16214,13.3673 -320.14614,61.7545 -369.25446,3.5001 -30.21655,-20.0379 256.77801,-363.3995 401.30376,-480.355"
       id="path2999"
       inkscape:connector-curvature="0"
       sodipodi:nodetypes="ccccc" />
    <path
       style="fill:none;stroke:#000000;stroke-width:30;stroke-linecap:butt;stroke-linejoin:miter;stroke-miterlimit:4;stroke-opacity:1;stroke-dasharray:none"
       d="m 994.91117,3661.6196 c -44.96197,145.2085 -95.25361,311.2459 -176.95557,430.6333 -74.2194,135.3538 -305.32866,327.0562 -249.83029,446.4424 23.03921,49.5612 124.55061,34.8715 184.94604,5.0951 57.59948,-28.398 126.40443,-100.4528 125.51938,-101.3387 -0.88504,-0.8859 550.86627,-437.9767 556.85327,-445.4826 149.3192,-96.5212 315.1377,-186.071 487.556,-233.8783 -21.2048,92.8411 -56.4586,222.3119 25.9865,248.7277 87.8865,8.7671 144.279,-43.8712 193.0424,-126.22 50.4506,-92.5104 130.1763,-182.7471 152.2066,-271.0641 45.3349,-160.7742 19.6228,-205.2606 -21.0003,-207.7676 -114.8565,12.5378 -219.4182,53.0004 -329.561,77.3226 -180.1042,92.7513 -365.897,136.6843 -565.153,166.3932 0.5866,0.9295 -258.0936,42.3027 -383.61003,11.137 z"
       id="path3769"
       inkscape:connector-curvature="0"
       sodipodi:nodetypes="ccsszccccccccc" />
    <path
       style="fill:none;stroke:#000000;stroke-width:30;stroke-linecap:butt;stroke-linejoin:miter;stroke-miterlimit:4;stroke-opacity:1;stroke-dasharray:none"
       d="m 1964.7109,2932.9107 c 236.0277,-7.0608 438.7145,-39.8973 670.3895,-60.0163 116.8361,-4.1512 111.6823,11.7067 111.6891,28.7268 0.01,17.0201 -38.4956,52.2982 -94.568,66.1505 -207.9556,99.4256 -389.8871,205.9648 -638.1627,270.3393 -36.2986,21.9563 -69.3143,82.0819 -74.9719,174.7808 -249.9235,121.9768 -629.7211,181.0315 -925.614,150.9692 7.4015,-67.6473 -3.4219,-136.5322 -22.27406,-204.1795"
       id="path3771"
       inkscape:connector-curvature="0"
       sodipodi:nodetypes="cczccccc" />
    <path
       style="fill:none;stroke:#000000;stroke-width:30;stroke-linecap:butt;stroke-linejoin:miter;stroke-miterlimit:4;stroke-opacity:1;stroke-dasharray:none"
       d="m 1043.0125,2880.973 c 109.3522,95.9238 231.615,168.3738 392.0047,171.5021 107.1252,8.7472 223.1746,31.4715 353.5043,-36.7505 143.1579,-61.9964 284.7636,-125.1014 364.0044,-232.7528 138.8624,-261.9198 108.9194,-523.8396 105.0012,-785.7594 -251.3692,-99.558 -513.2036,-57.8348 -773.5093,-36.7505 -258.723,50.5084 -524.26027,90.5334 -724.50867,231.0028 16.55646,150.5018 45.08768,301.0036 89.25108,451.5054 52.9278,103.4502 122.88546,172.1637 194.25229,238.0029 z"
       id="path3773"
       inkscape:connector-curvature="0"
       sodipodi:nodetypes="ccccccccc" />
    <path
       style="fill:none;stroke:#000000;stroke-width:30;stroke-linecap:butt;stroke-linejoin:miter;stroke-miterlimit:4;stroke-opacity:1;stroke-dasharray:none"
       d="m 1403.5312,1018.9375 c -174.7297,80.3906 -356.0757,109.3225 -504.0312,425.2813 56.94085,-134.9962 124.0124,-262.5874 210,-376.2813 -124.24845,83.4784 -248.19483,172.9375 -358.75,530.2813 l -26.25,-180.25 c -8.85933,116.8988 -8.61064,230.7576 -3.5,343 -32.03626,-63.628 -51.34926,-143.9893 -91,-217 67.4275,143.9714 102.27829,325.9098 101.1875,458.625 -144.57809,63.876 -297.87181,91.7719 -442.4375,124.125 23.33943,50.7865 44.86355,130.0464 66.5,217 36.02989,-15.1337 143.25583,-103.7902 222.25,-145.25 -25.11767,76.6921 -62.39307,152.5524 -115.5,215.25 48.78988,26.5585 100.55172,32.3002 154,26.25 55.87905,-88.5462 94.20609,-161.2891 141.75,-241.5 -19.40376,-56.7885 -23.95207,-127.2562 -26.3125,-194.625 0.0257,0.1249 0.0367,0.2499 0.0625,0.375 l -7.03128,-102.4075 c 57.2871,-115.382 555.02088,-155.2191 735.06258,-172.3425 174.4814,39.8487 361.5707,51.2744 486.5,150.4998 l -96.25,-143.5 c 101.5846,70.1674 211.293,128.141 295.75,224 l -98,-148.75 c 145.2822,66.759 249.8168,251.5994 339.5,374.5 6.2008,-104.202 -55.6239,-191.1249 -84,-260.75 l 140,94.5 c -24.4018,-79.0077 -91.8891,-162.1933 -143.5,-227.5 l 208.25,63 c -15.8813,-110.7634 -196.2316,-199.7015 -281.75,-287 77.5166,9.7577 195.504,22.5416 255.5,-12.25 -42.9679,-69.697 -210.0796,-111.0915 -299.25,-168 64.7507,-23.6329 129.4993,-43.2164 194.25,-43.75 -101.7164,-29.8014 -191.1117,-67.8133 -318.5,-80.5 l 274.75,-38.5313 c -216.3134,-31.7344 -433.2192,-64.7639 -698.25,-3.5 130.0054,-59.9427 269.0221,-113.8723 413,-164.5 -292.3515,52.1148 -611.9664,29.7408 -896.0312,231.0313 78.5821,-92.544 164.172,-181.626 252.0312,-269.5313 z"
       id="path3775"
       inkscape:connector-curvature="0"
       sodipodi:nodetypes="cccccccccccccccccccccccccccccccccccccc" />
    <path
       style="fill:none;stroke:#000000;stroke-width:30;stroke-linecap:butt;stroke-linejoin:miter;stroke-miterlimit:4;stroke-opacity:1;stroke-dasharray:none"
       d="m 854.01026,2634.22 c 181.30594,-103.3906 397.72824,-166.7531 666.75794,-211.7526 275.5777,-8.0383 500.2547,41.2637 719.2587,112.0014"
       id="path3782"
       inkscape:connector-curvature="0"
       sodipodi:nodetypes="ccc" />
    <path
       style="fill:none;stroke:#000000;stroke-width:30;stroke-linecap:butt;stroke-linejoin:miter;stroke-miterlimit:4;stroke-opacity:1;stroke-dasharray:none"
       d="M 566.7529,2205.139 737.52124,2096.2432"
       id="path3784"
       inkscape:connector-curvature="0" />
    <path
       style="fill:none;stroke:#000000;stroke-width:30;stroke-linecap:butt;stroke-linejoin:miter;stroke-miterlimit:4;stroke-opacity:1;stroke-dasharray:none"
       d="m 1410.517,1725.9591 c -58.3555,27.9825 -119.3048,71.5013 -105.0013,143.5017 46.003,78.0921 109.9285,89.1771 162.664,96.3391 109.4006,-21.1158 140.7956,-83.3386 142.6524,-120.8394 6.256,-116.2518 -107.7122,-107.6584 -200.3151,-119.0014 z"
       id="path3786"
       inkscape:connector-curvature="0"
       sodipodi:nodetypes="ccccc" />
    <path
       style="fill:none;stroke:#000000;stroke-width:30;stroke-linecap:butt;stroke-linejoin:miter;stroke-miterlimit:4;stroke-opacity:1;stroke-dasharray:none"
       d="m 1463.9054,1962.5985 c -35.6837,-19.3734 -53.628,-69.2722 -10.024,-123.7452 43.604,-54.473 56.298,-61.6989 63.2344,-96.5213"
       id="path3788"
       inkscape:connector-curvature="0"
       sodipodi:nodetypes="czc" />
    <path
       sodipodi:type="arc"
       style="fill:#000000;fill-opacity:1;stroke:none"
       id="path3790"
       sodipodi:cx="1198.7644"
       sodipodi:cy="2259.7156"
       sodipodi:rx="36.750443"
       sodipodi:ry="33.250401"
       d="m 1235.5148,2259.7156 a 36.750443,33.250401 0 1 1 -73.5008,0 36.750443,33.250401 0 1 1 73.5008,0 z" />
    <path
       sodipodi:type="arc"
       style="fill:#000000;fill-opacity:1;stroke:none"
       id="path3792"
       sodipodi:cx="1907.5229"
       sodipodi:cy="2205.4648"
       sodipodi:rx="31.500378"
       sodipodi:ry="28.000336"
       d="m 1939.0233,2205.4648 a 31.500378,28.000336 0 1 1 -63.0007,0 31.500378,28.000336 0 1 1 63.0007,0 z" />
    <path
       style="fill:#000000;fill-opacity:1;stroke:none;stroke-width:30;marker-end:none"
       d="m 1115.763,2323.907 c -9.2079,-3.3845 -18.2049,-6.1218 -26.8506,-9.0922 -10.2001,-3.5336 -20.1371,-7.1934 -29.5002,-11.8988 -4.2666,-2.1478 -8.3634,-4.4426 -12.12,-7.1414 0,0 0,0 0,0 -3.2088,-2.3341 -6.1702,-4.8145 -8.4109,-7.7803 0,0 0,0 0,0 -1.8706,-2.4961 -3.3353,-5.317 -3.6806,-8.292 -0.3831,-3.4434 0.5319,-7.1551 2.1668,-10.472 -0.2562,-2.1637 0.1375,-4.4861 0.8643,-6.6823 0.876,-2.5869 2.3156,-5.0587 3.9667,-7.4035 0,0 0,0 0,0 4.5437,-6.4471 10.5747,-11.9503 16.7781,-17.021 8.2685,-6.7741 17.1651,-12.8427 26.2328,-18.5307 10.7314,-6.7356 21.8073,-12.9641 33.0429,-18.8441 24.6603,-12.9104 50.2568,-24.3084 76.4842,-34.2847 12.6445,-4.8118 25.5094,-9.2919 38.6383,-13.3012 6.5163,-1.973 13.1439,-3.8397 19.8987,-5.5438 5.7494,0.2892 11.4893,0.6996 17.1989,1.2617 0,0 0,0 0,0 21.7227,2.9566 39.5592,12.594 53.5946,24.5928 0,0 0,0 0,0 6.6693,5.6817 12.6078,11.9699 17.6081,18.6948 4.3432,5.8432 8.0207,12.0205 10.327,18.3155 -4.006,-5.1241 -8.9632,-9.5588 -14.327,-13.5889 -6.1723,-4.6072 -12.8603,-8.4832 -19.8417,-11.6485 -14.6686,-6.5781 -30.4593,-10.1713 -44.8939,-8.1695 -11.0236,1.9575 -21.9637,4.6114 -32.8824,7.6254 -12.4166,3.4072 -24.7166,7.2965 -36.9295,11.5282 0,0 0,0 0,0 -25.386,8.8015 -50.1762,18.9529 -74.0813,30.5708 -2.7744,1.3496 -5.5304,2.7161 -8.2652,4.1022 -8.3511,3.197 -16.5654,6.5807 -24.5983,10.2383 -9.1511,4.1864 -17.9072,8.5354 -25.9782,13.5084 -6.1493,3.9312 -11.5474,7.4177 -15.2022,11.4069 0,0 0,0 0,0 -1.2537,1.4153 -2.1912,2.3608 -2.4913,2.9561 -0.5365,2.0236 -1.1838,3.3491 -1.5517,3.8379 -1.1307,2.7858 -2.2391,5.1158 -2.5597,6.6084 -0.3757,0.017 -0.017,0.9549 0.4996,2.3968 0.8187,1.8768 2.6737,3.9523 5.0137,6.3558 10e-5,0 10e-5,0 10e-5,0 2.7597,2.7261 6.1022,5.2915 9.7792,7.864 8.0827,5.6332 17.2065,10.5114 26.7513,15.3458 8.0488,4.0624 16.6395,7.9777 25.3194,12.4851 z"
       id="path3794"
       inkscape:connector-curvature="0"
       sodipodi:nodetypes="cccc"
       inkscape:path-effect="#path-effect3058"
       inkscape:original-d="m 1110.6628,2334.7541 c -26.571,-12.4934 -94.2289,-35.7986 -75.0385,-65.9882 -1.5736,-34.5344 151.2627,-92.9512 236.3407,-102.8266 34.2172,-2.0208 70.1266,20.3883 84.6016,41.4" />
    <path
       style="fill:#000000;fill-opacity:1;stroke:none"
       d="m 1715.7491,2175.7373 c 6.159,-9.3804 10.5868,-19.167 16.7428,-27.7998 7.1968,-10.184 17.2691,-18.7953 29.5532,-23.6447 0,0 0,0 0,0 45.8076,-6.4302 91.9094,-13.694 139.2406,-18.1997 0,0 0,0 0,0 29.1876,-2.7473 58.8005,-4.2635 88.7221,-3.5149 15.1974,2.9517 30.2587,6.4839 45.0986,10.716 4.6481,1.4641 9.3006,3.3577 13.796,5.7712 4.2191,2.2339 8.4645,5.2587 12.2605,9.1972 3.6518,3.7224 6.4355,8.6226 7.7731,14.2767 1.1995,6.5078 0.2344,12.4578 -1.994,17.3688 -3.1488,7.0124 -7.6427,12.4541 -12.3186,16.9269 -10e-5,0 -10e-5,0 -10e-5,0 -7.1758,6.9996 -15.0711,12.6587 -23.0708,17.7487 -27.8152,17.7231 -57.7908,30.2087 -87.995,42.0269 28.1855,-15.773 55.92,-32.1655 79.7644,-52.5009 6.8242,-5.8421 13.1756,-11.8105 18.2169,-18.3569 0,0 0,0 0,0 3.2193,-4.3302 5.9162,-8.3609 6.8318,-12.1869 0.4799,-2.3397 0.7039,-4.3638 0.054,-5.3051 -0.2443,-0.9303 -1.3699,-2.0725 -2.7039,-3.2692 0,0 0,0 0,0 -1.6269,-1.4057 -4.0019,-2.5357 -6.7493,-3.6786 -2.8014,-1.1226 -5.8824,-1.918 -9.1338,-2.5273 -42.1351,-6.1229 -85.0347,-6.1694 -127.9293,-3.6262 0,0 0,0 0,0 -0.1,0.01 -0.1996,0.011 -0.2994,0.017 -45.0437,-2.1772 -91.1544,-1.4144 -137.7664,-1.3368 0,0 0,0 0,0 -10.2011,2.3051 -19.9935,8.5371 -27.9036,16.9608 0,0 0,0 0,0 -6.9605,7.2188 -12.8439,16.4628 -20.1902,24.9367 z"
       id="path3976"
       inkscape:connector-curvature="0"
       sodipodi:nodetypes="cccc"
       inkscape:path-effect="#path-effect5278"
       inkscape:original-d="m 1712.5453,2173.2912 c 11.8696,-15.5463 21.3465,-38.9313 49.7104,-47.8799 97.2935,-6.4944 184.0459,-14.9935 270.1709,0.8492 31.1899,7.1614 67.9625,36.697 -86.2775,115.4272" />
    <path
       style="fill:none;stroke:#000000;stroke-width:30;stroke-linecap:butt;stroke-linejoin:miter;stroke-miterlimit:4;stroke-opacity:1;stroke-dasharray:none"
       d="m 993.67375,3664.0946 24.74905,-105.1834"
       id="path3978"
       inkscape:connector-curvature="0" />
    <path
       style="fill:none;stroke:#000000;stroke-width:10;stroke-linecap:butt;stroke-linejoin:miter;stroke-miterlimit:4;stroke-opacity:1;stroke-dasharray:none"
       d="m 1077.8205,3672.7568 7.4247,-105.1834"
       id="path3980"
       inkscape:connector-curvature="0" />
    <path
       style="fill:none;stroke:#000000;stroke-width:10;stroke-linecap:butt;stroke-linejoin:miter;stroke-miterlimit:4;stroke-opacity:1;stroke-dasharray:none"
       d="m 1157.0174,3675.2317 -2.4749,-101.4711"
       id="path3982"
       inkscape:connector-curvature="0" />
    <path
       style="fill:none;stroke:#000000;stroke-width:10;stroke-linecap:butt;stroke-linejoin:miter;stroke-miterlimit:4;stroke-opacity:1;stroke-dasharray:none"
       d="m 1249.8263,3670.2819 -25.9865,-97.7587"
       id="path3984"
       inkscape:connector-curvature="0" />
    <path
       style="fill:none;stroke:#000000;stroke-width:10;stroke-linecap:butt;stroke-linejoin:miter;stroke-miterlimit:4;stroke-opacity:1;stroke-dasharray:none"
       d="m 1346.3475,3660.3822 -44.5483,-92.8088"
       id="path3986"
       inkscape:connector-curvature="0" />
    <path
       style="fill:none;stroke:#000000;stroke-width:10;stroke-linecap:butt;stroke-linejoin:miter;stroke-miterlimit:4;stroke-opacity:1;stroke-dasharray:none"
       d="m 1403.2703,3645.5328 -47.0232,-80.4343"
       id="path3988"
       inkscape:connector-curvature="0" />
    <path
       style="fill:none;stroke:#000000;stroke-width:10;stroke-linecap:butt;stroke-linejoin:miter;stroke-miterlimit:4;stroke-opacity:1;stroke-dasharray:none"
       d="m 1455.2432,3639.3456 -43.3108,-84.1468"
       id="path3990"
       inkscape:connector-curvature="0" />
    <path
       style="fill:none;stroke:#000000;stroke-width:10;stroke-linecap:butt;stroke-linejoin:miter;stroke-miterlimit:4;stroke-opacity:1;stroke-dasharray:none"
       d="m 1491.1293,3631.9208 -28.4613,-77.9594"
       id="path3992"
       inkscape:connector-curvature="0" />
    <path
       style="fill:none;stroke:#000000;stroke-width:10;stroke-linecap:butt;stroke-linejoin:miter;stroke-miterlimit:4;stroke-opacity:1;stroke-dasharray:none"
       d="m 1541.8649,3620.7838 -32.1738,-79.1969"
       id="path3994"
       inkscape:connector-curvature="0" />
    <path
       style="fill:none;stroke:#000000;stroke-width:10;stroke-linecap:butt;stroke-linejoin:miter;stroke-miterlimit:4;stroke-opacity:1;stroke-dasharray:none"
       d="m 1603.7375,3608.4093 -35.8861,-75.4846"
       id="path3996"
       inkscape:connector-curvature="0" />
    <path
       style="fill:none;stroke:#000000;stroke-width:10;stroke-linecap:butt;stroke-linejoin:miter;stroke-miterlimit:4;stroke-opacity:1;stroke-dasharray:none"
       d="m 1664.3726,3592.3224 -40.8359,-74.2471"
       id="path3998"
       inkscape:connector-curvature="0" />
    <path
       style="fill:none;stroke:#000000;stroke-width:10;stroke-linecap:butt;stroke-linejoin:miter;stroke-miterlimit:4;stroke-opacity:1;stroke-dasharray:none"
       d="m 1710.1583,3578.7104 -22.2741,-76.722"
       id="path4000"
       inkscape:connector-curvature="0" />
    <path
       style="fill:none;stroke:#000000;stroke-width:10;stroke-linecap:butt;stroke-linejoin:miter;stroke-miterlimit:4;stroke-opacity:1;stroke-dasharray:none"
       d="m 1762.1313,3560.1486 -21.0367,-69.2973"
       id="path4002"
       inkscape:connector-curvature="0" />
    <path
       style="fill:none;stroke:#000000;stroke-width:10;stroke-linecap:butt;stroke-linejoin:miter;stroke-miterlimit:4;stroke-opacity:1;stroke-dasharray:none"
       d="m 1817.8166,3539.112 -21.0367,-65.585"
       id="path4004"
       inkscape:connector-curvature="0" />
    <path
       style="fill:none;stroke:#000000;stroke-width:10;stroke-linecap:butt;stroke-linejoin:miter;stroke-miterlimit:4;stroke-opacity:1;stroke-dasharray:none"
       d="m 1845.0405,3523.0251 -18.5617,-61.8726"
       id="path4006"
       inkscape:connector-curvature="0" />
    <path
       style="fill:none;stroke:#000000;stroke-width:10;stroke-linecap:butt;stroke-linejoin:miter;stroke-miterlimit:4;stroke-opacity:1;stroke-dasharray:none"
       d="m 1897.0135,3504.4633 -38.361,-50.7355"
       id="path4008"
       inkscape:connector-curvature="0" />
    <path
       style="fill:none;stroke:#000000;stroke-width:10;stroke-linecap:butt;stroke-linejoin:miter;stroke-miterlimit:4;stroke-opacity:1;stroke-dasharray:none"
       d="m 1939.0869,3484.6641 -37.1236,-54.4479"
       id="path4010"
       inkscape:connector-curvature="0" />
    <path
       style="fill:none;stroke:#000000;stroke-width:20;stroke-linecap:butt;stroke-linejoin:miter;stroke-miterlimit:4;stroke-opacity:1;stroke-dasharray:none"
       d="m 1966.3108,3479.7143 -29.6988,-65.585"
       id="path4012"
       inkscape:connector-curvature="0" />
    <path
       style="fill:none;stroke:#000000;stroke-width:30;stroke-linecap:butt;stroke-linejoin:miter;stroke-miterlimit:4;stroke-opacity:1;stroke-dasharray:none"
       d="m 962.73743,3728.4421 c -65.95376,178.463 -158.12615,347.3334 -415.78378,461.5695 -48.59897,23.6964 -102.15013,44.9237 -124.98262,7.4248 -18.97792,-24.7489 88.22323,-63.5199 124.98262,-87.8592 188.87024,-113.7829 295.50192,-286.1899 357.62355,-395.9845 z"
       id="path6922"
       inkscape:connector-curvature="0"
       sodipodi:nodetypes="cccccc" />
    <path
       style="fill:none;stroke:#000000;stroke-width:30;stroke-linecap:butt;stroke-linejoin:miter;stroke-miterlimit:4;stroke-opacity:1;stroke-dasharray:none"
       d="m 906.72319,3710.8894 c 25.60993,-73.7745 39.16575,-156.8225 56.00067,-237.6844 20.28144,-2.6013 33.7569,7.0119 54.03834,13.2753"
       id="path6924"
       inkscape:connector-curvature="0"
       sodipodi:nodetypes="ccc" />
    <path
       style="fill:none;stroke:#000000;stroke-width:30;stroke-linecap:butt;stroke-linejoin:miter;stroke-miterlimit:4;stroke-opacity:1;stroke-dasharray:none"
       d="m 948.51137,3547.7311 77.00093,15.7501"
       id="path6928"
       inkscape:connector-curvature="0" />
  </g>
  <g
     inkscape:groupmode="layer"
     id="layer4"
     inkscape:label="Figur-Kontur-Detail"
     style="display:inline">
    <path
       style="fill:#000000;fill-rule:evenodd;stroke:none;display:inline"
       d="m 879.15871,2672.3717 -8.29644,18.198 c 32.79667,14.0372 66.79275,24.5938 101.15555,32.7662 35.41968,8.4276 71.27278,14.3701 107.21088,18.7434 0,0 0,0 0,0 70.6658,8.5971 141.6537,11.1481 212.5355,12.8922 -70.7217,-5.0703 -141.4734,-10.9539 -211.0964,-22.7782 0,0 -10e-5,0 -10e-5,0 -35.4094,-6.0126 -70.5071,-13.5378 -104.8197,-23.4336 -10e-6,0 -10e-6,0 -10e-6,0 -33.28636,-9.6038 -65.84218,-21.4102 -96.68928,-36.388 z"
       id="path3860"
       inkscape:path-effect="#path-effect3862"
       inkscape:original-d="m 875.01049,2681.4707 c 124.7798,56.8867 282.80291,67.0546 416.75371,73.5008"
       inkscape:connector-curvature="0"
       sodipodi:nodetypes="cc" />
    <path
       style="fill:#000000;fill-rule:evenodd;stroke:none;display:inline"
       d="m 865.89855,2641.3505 -6.2764,18.9896 c 16.40449,5.0005 33.46991,7.5931 50.51988,7.6633 15.7282,0.047 31.24253,-1.9789 46.27283,-5.3862 28.78913,-6.5552 55.51634,-17.7686 82.24284,-27.4905 0,0 0,0 0,0 7.5524,-2.7483 15.3162,-5.1228 23.1703,-7.3901 9.8351,-2.8373 19.7609,-5.4402 29.7377,-7.9086 22.6053,-5.5922 45.4013,-10.4969 68.3367,-14.7416 11.0721,-2.049 22.1729,-3.9353 33.3133,-5.5723 9.7191,-1.4277 19.4596,-2.68 29.2409,-3.5406 10e-5,0 10e-5,0 10e-5,0 7.507,-0.6592 15.0269,-1.1531 22.5492,-0.888 2.6643,0.094 5.3263,0.2807 7.9501,0.7436 1.8321,0.3247 3.6711,0.7474 5.3091,1.6406 -1.5918,-0.9731 -3.4301,-1.4977 -5.2543,-1.9118 -2.6166,-0.5958 -5.2923,-0.9183 -7.9646,-1.1444 -7.545,-0.6391 -15.1451,-0.5203 -22.7024,-0.2291 0,0 0,0 0,0 -9.8597,0.3786 -19.7043,1.1512 -29.5211,2.1014 -11.2559,1.0893 -22.4887,2.4307 -33.6964,3.9368 0,0 0,0 0,0 -23.2112,3.1186 -46.351,6.9112 -69.373,11.4124 -10.163,1.9868 -20.3169,4.1198 -30.4366,6.5039 -8.0608,1.8971 -16.1541,3.9448 -24.1996,6.4246 0,0 0,0 0,0 -27.5408,8.4676 -54.40768,18.253 -81.73223,22.9695 -14.25408,2.475 -28.63059,3.6481 -42.76051,2.8762 -15.28825,-0.8164 -30.4142,-3.907 -44.72581,-9.0587 z"
       id="path3868"
       inkscape:path-effect="#path-effect3870"
       inkscape:original-d="m 862.76035,2650.8453 c 65.82044,21.7548 121.84258,-3.4753 174.12705,-21.0002 52.2845,-17.5249 200.9282,-44.1916 221.3777,-32.3754"
       inkscape:connector-curvature="0"
       sodipodi:nodetypes="czc" />
    <path
       style="fill:#000000;fill-rule:evenodd;stroke:none;display:inline"
       d="m 910.76419,2654.6973 7.42524,6.6982 c 24.91075,-28.2467 55.75972,-51.2323 89.38977,-68.8262 33.9929,-17.7866 70.6868,-30.3605 107.9999,-40.3643 0,0 0,0 0,0 38.7012,-10.3709 78.167,-17.9985 117.6442,-25.5049 0,0 0,0 0,0 39.4882,-7.5071 79.0731,-14.8285 118.074,-24.5726 -39.1984,8.9165 -78.8777,15.3878 -118.5242,22.0601 0,0 0,0 0,0 -39.6326,6.6685 -79.3152,13.4713 -118.4624,23.0733 -37.7474,9.2538 -75.1055,21.1866 -110.1645,38.5679 -34.72839,17.2207 -66.90876,40.1536 -93.38201,68.8685 z"
       id="path3872"
       inkscape:path-effect="#path-effect3874"
       inkscape:original-d="m 914.47681,2658.0464 c 106.17239,-117.697 282.80239,-119.1659 436.82049,-155.9189"
       inkscape:connector-curvature="0"
       sodipodi:nodetypes="cc" />
    <path
       style="fill:#000000;fill-rule:evenodd;stroke:none;display:inline"
       d="m 911.27928,2733.5074 -1.02964,9.9468 c 61.97422,5.5782 123.99646,9.255 185.90686,14.0205 62.1594,4.7861 124.2616,10.698 185.8435,20.6045 -61.2946,-11.5517 -123.3226,-19.1422 -185.3921,-25.5942 -61.8191,-6.4275 -123.72842,-11.7641 -185.32862,-18.9776 z"
       id="path3876"
       inkscape:path-effect="#path-effect3878"
       inkscape:original-d="m 910.76446,2738.4808 c 123.74514,12.8094 247.49034,17.9885 371.23554,39.5984"
       inkscape:connector-curvature="0"
       sodipodi:nodetypes="cc" />
    <path
       style="fill:#000000;fill-rule:evenodd;stroke:none;display:inline"
       d="m 918.16608,2736.1054 -2.42874,9.7006 c 87.63896,21.1078 176.20016,39.2222 265.80136,49.4309 93.782,10.6842 188.6499,12.4259 282.3667,2.6415 -93.8785,8.0875 -188.4904,4.6148 -281.7422,-7.717 -89.1035,-11.7823 -176.9746,-31.4338 -263.99712,-54.056 z"
       id="path3880"
       inkscape:path-effect="#path-effect3882"
       inkscape:original-d="m 916.95171,2740.9557 c 173.32099,43.3944 350.75909,75.6139 546.95369,56.9227"
       inkscape:connector-curvature="0"
       sodipodi:nodetypes="cc" />
    <path
       style="fill:#000000;fill-rule:evenodd;stroke:none;display:inline"
       d="m 1001.0777,2830.1523 -2.4334,9.6994 c 107.361,25.1871 217.3665,32.493 326.6665,42.1734 -108.9555,-12.9959 -218.7594,-23.6645 -324.2331,-51.8728 z"
       id="path3884"
       inkscape:path-effect="#path-effect3886"
       inkscape:original-d="m 999.86098,2835.002 c 108.48332,27.216 216.96652,35.7519 325.44982,47.0231"
       inkscape:connector-curvature="0"
       sodipodi:nodetypes="cc" />
    <path
       style="fill:#000000;fill-rule:evenodd;stroke:none;display:inline"
       d="m 1207.5145,2907.2234 c 0.051,-0.3028 2.0999,-0.2599 5.9554,0.073 3.8555,0.3324 9.5174,0.9528 16.7999,1.7658 14.5648,1.6261 35.6138,4.0197 61.6769,6.2519 26.0632,2.2322 57.1459,4.2758 91.7116,5.4039 34.5656,1.1281 72.6138,1.3316 112.5009,0.3588 0.01,-2e-4 0.02,-5e-4 0.029,-7e-4 39.892,-0.9744 77.8703,-2.9778 112.4033,-5.3031 34.5329,-2.3254 65.6202,-4.9605 91.7308,-7.2713 26.1106,-2.3108 47.2449,-4.2945 61.8728,-5.5009 14.6278,-1.2063 22.7506,-1.6365 22.8259,-1.027 0.075,0.6095 -7.9039,2.2013 -22.4162,4.4664 -14.5123,2.2651 -35.5591,5.2047 -61.6314,8.3212 -26.0723,3.1166 -57.1718,6.4072 -91.7779,9.1886 -34.6062,2.7815 -72.7203,5.0417 -112.7896,6.0234 -0.01,2e-4 -0.02,5e-4 -0.03,7e-4 -40.0676,0.9819 -78.3151,0.5265 -113.0396,-1.0606 -34.7244,-1.5871 -65.9237,-4.2958 -92.0236,-7.3416 -26.0998,-3.0458 -47.1046,-6.4009 -61.5525,-9.0852 -7.2239,-1.3421 -12.81,-2.516 -16.5782,-3.4208 -3.7683,-0.9048 -5.7189,-1.5392 -5.6683,-1.842 z"
       id="path3892"
       inkscape:path-effect="#path-effect3894"
       inkscape:original-d="m 1207.5145,2907.2234 c 191.9189,32.079 385.5879,18.4752 577.5069,-5.2501"
       inkscape:connector-curvature="0"
       sodipodi:nodetypes="cc" />
    <path
       style="fill:#000000;fill-rule:evenodd;stroke:none;display:inline"
       d="m 1114.944,2639.4846 c -0.2323,-0.6438 8.327,-4.4701 24.1208,-10.6067 15.7938,-6.1366 38.8311,-14.5698 67.6307,-24.0902 28.7995,-9.5204 63.3682,-20.1147 102.1809,-30.4329 38.8128,-10.3182 81.8731,-20.3433 127.5355,-28.8128 1.4844,-0.2753 2.9715,-0.5489 4.4613,-0.8209 46.2025,-8.4339 90.6066,-14.4011 131.1289,-18.3026 40.5222,-3.9015 77.1581,-5.754 107.9293,-6.397 30.7711,-0.6431 55.6795,-0.1059 72.8712,0.678 8.5959,0.392 15.2644,0.8468 19.7811,1.2791 4.5166,0.4323 6.8816,0.8407 6.8719,1.1856 -0.01,0.3449 -2.3935,0.6099 -6.9196,0.8283 -4.5261,0.2184 -11.1947,0.3915 -19.7755,0.5977 -17.1614,0.4124 -41.9751,0.9531 -72.5775,2.4958 -30.6024,1.5427 -66.9957,4.1159 -107.2408,8.4986 -40.245,4.3826 -84.3384,10.5905 -130.2733,18.9741 -1.4812,0.2704 -2.9598,0.5421 -4.4357,0.8152 -45.4056,8.4003 -88.2947,18.0871 -127.0559,27.8632 -38.7613,9.7762 -73.3972,19.6249 -102.3757,28.255 -28.9785,8.6301 -52.3054,16.0282 -68.465,21.0332 -16.1595,5.005 -25.1603,7.6031 -25.3926,6.9593 z"
       id="path3896"
       inkscape:path-effect="#path-effect3898"
       inkscape:original-d="m 1114.944,2639.4846 c 209.6989,-75.6639 428.4733,-122.967 664.5116,-116.3204"
       inkscape:connector-curvature="0"
       sodipodi:nodetypes="cc" />
    <path
       style="fill:#000000;fill-rule:evenodd;stroke:none;display:inline"
       d="m 1406.7422,2550.5613 2.9556,9.5532 c 16.8586,-5.5358 33.654,-11.0845 50.5889,-16.0431 0,0 0,0 0,0 19.2053,-5.6243 38.6395,-10.4924 58.2694,-14.4557 57.1493,-11.5468 115.7445,-15.8986 174.2778,-17.5886 -58.5567,-0.3344 -117.3591,1.9825 -175.3763,11.6153 0,0 0,0 0,0 -19.9394,3.3137 -39.7316,7.5482 -59.328,12.5591 0,0 0,0 0,0 -17.2757,4.4182 -34.3583,9.4116 -51.3874,14.3598 z"
       id="path3900"
       inkscape:path-effect="#path-effect3902"
       inkscape:original-d="m 1408.22,2555.3379 c 66.5324,-20.5835 131.3612,-41.5365 284.6139,-43.3108"
       inkscape:connector-curvature="0"
       sodipodi:nodetypes="cc" />
    <path
       style="fill:#000000;fill-rule:evenodd;stroke:none"
       d="m 2158.4597,2570.6047 -5.6376,-8.2594 c -46.6531,32.8351 -98.8129,57.7256 -151.347,81.262 -57.8792,25.9193 -116.8733,49.5309 -174.9964,75.0742 58.8041,-23.9339 118.3716,-45.891 177.073,-70.2602 53.2492,-22.0944 106.409,-45.7029 154.908,-77.8166 z"
       id="path3921"
       inkscape:path-effect="#path-effect3923"
       inkscape:original-d="m 2155.6409,2566.475 c -85.1348,58.1113 -213.4845,103.2581 -329.1622,152.2065"
       inkscape:connector-curvature="0"
       sodipodi:nodetypes="cc" />
    <path
       style="fill:#000000;fill-rule:evenodd;stroke:none"
       d="m 2119.6123,2573.6882 -7.1398,-7.0018 c -5.8089,6.1863 -13.6543,10.6529 -21.983,14.225 -10.5343,4.4693 -21.8802,7.2804 -33.4327,9.3515 -13.9897,2.4962 -28.2507,3.7771 -42.5786,4.4178 -16.44,0.7326 -32.9482,0.5773 -49.4526,-0.1302 -37.1164,-1.5914 -74.1481,-5.9188 -110.9261,-11.8418 -37.9862,-6.1185 -75.7132,-14.0003 -113.005,-23.6584 37.0282,10.6241 74.5832,19.497 112.4887,26.6179 36.6967,6.8948 73.7606,12.2068 111.1118,14.7858 0,0 0,0 0,0 16.6121,1.147 33.2971,1.737 50.0092,1.4293 14.5576,-0.2656 29.1791,-1.2019 43.7056,-3.3977 11.9793,-1.8008 24.0131,-4.4777 35.5697,-8.9936 9.1734,-3.5466 18.2123,-8.4999 25.6328,-15.8038 z"
       id="path3917"
       inkscape:path-effect="#path-effect3919"
       inkscape:original-d="m 2116.0424,2570.1873 c -47.406,48.3407 -230.7636,28.2114 -374.9479,-11.137"
       inkscape:connector-curvature="0"
       sodipodi:nodetypes="cc" />
    <path
       style="fill:#000000;fill-rule:evenodd;stroke:none"
       d="m 2243.4442,2561.8291 -3.3346,-19.72 c -93.464,17.6672 -188.2812,28.9982 -283.5411,30.7379 -76.7686,1.3929 -153.9719,-3.1041 -229.2978,-19.1278 74.6508,18.9209 152.0629,26.4943 229.2882,28.0522 95.8545,1.9446 191.9097,-5.7455 286.8853,-19.9423 z"
       id="path3913"
       inkscape:path-effect="#path-effect3915"
       inkscape:original-d="m 2241.7769,2551.9691 c -205.4564,34.7414 -383.6101,32.2489 -514.5062,1.7501"
       inkscape:connector-curvature="0"
       sodipodi:nodetypes="cc" />
    <path
       style="fill:#000000;fill-rule:evenodd;stroke:none"
       d="m 2221.8479,2561.3472 -5.6426,-8.256 c -61.1692,42.8777 -124.9608,82.0941 -190.5878,118.0316 -58.2863,31.9184 -117.9897,61.3137 -177.5953,90.8488 60.2851,-28.122 120.6613,-56.1 179.8057,-86.6968 66.5959,-34.4524 131.522,-72.2827 194.02,-113.9276 z"
       id="path3938"
       inkscape:path-effect="#path-effect3940"
       inkscape:original-d="m 2219.0266,2557.2192 c -136.0282,92.9709 -253.1141,148.0573 -371.0044,204.7524"
       inkscape:connector-curvature="0"
       sodipodi:nodetypes="cc" />
    <path
       style="fill:#000000;fill-rule:evenodd;stroke:none"
       d="m 2213.7762,2648.2912 -6.9994,-7.142 c -56.0116,56.0773 -118.7295,105.4215 -184.1009,150.7626 -64.8941,45.0069 -132.5591,86.0387 -200.9041,125.8117 69.1651,-38.329 137.7037,-77.9444 203.6998,-121.6885 66.4811,-44.0624 130.5403,-92.3171 188.3046,-147.7438 z"
       id="path3946"
       inkscape:path-effect="#path-effect3948"
       inkscape:original-d="m 2210.2765,2644.7202 c -112.1099,109.8713 -254.9292,197.1361 -388.5047,273.0033"
       inkscape:connector-curvature="0"
       sodipodi:nodetypes="cc" />
    <path
       style="fill:#000000;fill-rule:evenodd;stroke:none"
       d="m 1744.7709,2809.2222 c -0.037,-0.2845 1.7365,-0.795 5.1388,-1.5082 3.4023,-0.7133 8.4347,-1.6259 14.9062,-2.7488 6.4715,-1.123 14.383,-2.4518 23.5195,-4.0933 9.1366,-1.6416 19.4987,-3.5925 30.8369,-6.1156 12.6795,-2.8194 26.5863,-6.3696 41.3778,-10.8318 14.7915,-4.4622 30.4673,-9.8381 46.6663,-16.2225 21.1864,-8.3478 43.2853,-18.3456 65.753,-29.7021 17.1292,-8.658 33.5441,-17.6126 49.1128,-26.4825 0,0 0,0 10e-5,0 22.9958,-13.1032 44.1512,-26.0214 63.0082,-37.922 18.857,-11.9005 35.4176,-22.7793 49.1827,-31.8887 13.7651,-9.1095 24.7353,-16.4495 32.3504,-21.3892 7.615,-4.9397 11.8757,-7.48 12.1526,-7.0977 0.2769,0.3823 -3.4522,3.6566 -10.5845,9.2857 -7.1324,5.6291 -17.6688,13.6138 -31.0763,23.3082 -13.4076,9.6944 -29.6876,21.0985 -48.3654,33.4464 -18.6777,12.3479 -39.756,25.6358 -62.7875,39.0041 0,0 0,0 0,0 -15.5931,9.052 -32.0985,18.142 -49.3841,26.8768 -22.6728,11.4571 -45.0749,21.4469 -66.601,29.6752 -16.4766,6.2965 -32.4383,11.5054 -47.5009,15.7293 -15.0625,4.2239 -29.2252,7.4649 -42.1293,9.9149 -11.5419,2.1896 -22.0493,3.757 -31.3013,4.977 -9.252,1.22 -17.2494,2.0892 -23.7983,2.7247 -6.5489,0.6355 -11.6501,1.0328 -15.1228,1.211 -3.4726,0.1782 -5.3172,0.1336 -5.3539,-0.1509 z"
       id="path3950"
       inkscape:path-effect="#path-effect3952"
       inkscape:original-d="m 1744.7709,2809.2222 c 96.4152,-12.4542 195.7857,-23.4466 434.0053,-196.0024"
       inkscape:connector-curvature="0"
       sodipodi:nodetypes="cc" />
    <path
       style="fill:#000000;fill-rule:evenodd;stroke:none"
       d="m 1909.2729,2767.2217 c -0.1958,-0.3648 3.4386,-2.7487 10.1312,-6.8171 6.6926,-4.0684 16.4406,-9.8276 28.4267,-17.0264 11.9861,-7.1988 26.2078,-15.8421 41.8393,-25.6795 15.6315,-9.8375 32.6702,-20.8725 50.3176,-32.7937 17.6474,-11.9213 34.2383,-23.6069 49.1748,-34.4543 14.9365,-10.8474 28.221,-20.8533 39.3226,-29.3392 11.1015,-8.486 20.0246,-15.4467 26.2532,-20.1912 6.2286,-4.7445 9.7691,-7.2657 10.0377,-6.9507 0.2686,0.315 -2.7608,3.4374 -8.5395,8.741 -5.7786,5.3037 -14.313,12.7817 -25.1109,21.7196 -10.7979,8.9379 -23.8639,19.3305 -38.6786,30.4657 -14.8148,11.1353 -31.3806,23.0097 -49.1008,34.9807 -17.7201,11.9709 -34.921,22.9108 -50.7697,32.5256 -15.8487,9.6148 -30.3426,17.908 -42.6323,24.6549 -12.2897,6.7468 -22.3729,11.9521 -29.42,15.3961 -7.047,3.4441 -11.0555,5.1333 -11.2513,4.7685 z"
       id="path3958"
       inkscape:path-effect="#path-effect3960"
       inkscape:original-d="m 1909.2729,2767.2217 c 102.8548,-55.224 185.2665,-113.3684 255.5031,-173.2521"
       inkscape:connector-curvature="0"
       sodipodi:nodetypes="cc" />
  </g>
</svg>
