<?xml version="1.0" encoding="UTF-8" standalone="no"?>
<!-- Created with Inkscape (http://www.inkscape.org/) -->

<svg
   xmlns:dc="http://purl.org/dc/elements/1.1/"
   xmlns:cc="http://creativecommons.org/ns#"
   xmlns:rdf="http://www.w3.org/1999/02/22-rdf-syntax-ns#"
   xmlns:svg="http://www.w3.org/2000/svg"
   xmlns="http://www.w3.org/2000/svg"
   xmlns:sodipodi="http://sodipodi.sourceforge.net/DTD/sodipodi-0.dtd"
   xmlns:inkscape="http://www.inkscape.org/namespaces/inkscape"
   width="153.41724mm"
   height="73.724754mm"
   viewBox="0 0 153.41724 73.724755"
   version="1.1"
   id="svg951"
   inkscape:version="0.92.2 2405546, 2018-03-11"
   sodipodi:docname="funktions_aufruf.svg">
  <defs
     id="defs945" />
  <sodipodi:namedview
     id="base"
     pagecolor="#ffffff"
     bordercolor="#666666"
     borderopacity="1.0"
     inkscape:pageopacity="0.0"
     inkscape:pageshadow="2"
     inkscape:zoom="1.4"
     inkscape:cx="238.7726"
     inkscape:cy="183.16846"
     inkscape:document-units="mm"
     inkscape:current-layer="layer1"
     showgrid="false"
     inkscape:window-width="1920"
     inkscape:window-height="996"
     inkscape:window-x="0"
     inkscape:window-y="48"
     inkscape:window-maximized="1"
     fit-margin-top="5"
     fit-margin-left="5"
     fit-margin-right="5"
     fit-margin-bottom="5" />
  <metadata
     id="metadata948">
    <rdf:RDF>
      <cc:Work
         rdf:about="">
        <dc:format>image/svg+xml</dc:format>
        <dc:type
           rdf:resource="http://purl.org/dc/dcmitype/StillImage" />
        <dc:title></dc:title>
      </cc:Work>
    </rdf:RDF>
  </metadata>
  <g
     inkscape:label="Ebene 1"
     inkscape:groupmode="layer"
     id="layer1"
     transform="translate(193.2421,-124.98595)">
    <text
       id="text1120-3"
       y="163.84055"
       x="-176.68466"
       style="font-style:normal;font-weight:normal;font-size:10.58333302px;line-height:1.25;font-family:sans-serif;letter-spacing:0px;word-spacing:0px;fill:#000000;fill-opacity:1;stroke:none;stroke-width:0.26458332"
       xml:space="preserve"><tspan
         style="font-style:normal;font-variant:normal;font-weight:normal;font-stretch:normal;font-family:monospace;-inkscape-font-specification:monospace;stroke-width:0.26458332"
         y="163.84055"
         x="-176.68466"
         id="tspan1118-6"
         sodipodi:role="line"><tspan
           id="tspan1110-3"
           style="fill:#006680;stroke-width:0.26458332">print</tspan><tspan
           id="tspan1112-5"
           style="fill:#808080;stroke-width:0.26458332">(</tspan><tspan
           id="tspan1114-6"
           style="fill:#2ca05a;fill-opacity:1;stroke-width:0.26458332">&quot;Hallo Welt&quot;</tspan><tspan
           id="tspan1116-2"
           style="fill:#808080;stroke-width:0.26458332">)</tspan></tspan></text>
    <g
       transform="translate(-121.37485,34.50425)"
       id="g1518">
      <path
         inkscape:connector-curvature="0"
         d="m -19.445687,119.51652 c 0.238237,-1.70076 0.537378,-3.3859 1.09229,-5.01647 0.14468,-0.42513 0.31879,-0.83967 0.478184,-1.2595 0.764552,-1.98211 2.150947,-3.535 3.677409,-4.96158 0,0 0.931237,-0.38159 0.931237,-0.38159 v 0 c -1.554034,1.42831 -2.921684,2.92745 -3.711025,4.92629 -0.160142,0.41756 -0.335746,0.82951 -0.480426,1.25268 -0.550686,1.61067 -0.842385,3.2771 -1.048568,4.96167 0,0 -0.939101,0.4785 -0.939101,0.4785 z"
         id="path916"
         style="fill:#ff8080;stroke:none;stroke-width:0.26458332;stroke-miterlimit:4;stroke-dasharray:none" />
      <path
         inkscape:connector-curvature="0"
         d="m -14.670823,106.02463 c 1.464831,-0.3448 2.913004,-0.74912 4.393696,-1.02295 0.9038852,-0.18163 1.655222,-0.19196 2.0271677,0.80981 0.070924,0.19102 0.094382,0.39644 0.1415735,0.59466 0.078078,1.35012 -0.2860731,2.65597 -0.9394552,3.82659 -0.4491186,0.56339 -0.4774732,0.70129 -1.532293,0.90739 -0.176543,0.0345 -0.33451,-0.13756 -0.486012,-0.23453 -0.703521,-0.45031 -1.245457,-1.10681 -1.799775,-1.71838 -0.709173,-0.80022 -1.455858,-1.59166 -2.419473,-2.07768 0,0 0.873094,-0.57204 0.873094,-0.57204 v 0 c 0.954169,0.5196 1.704041,1.31244 2.416596,2.1222 0.376074,0.41344 0.772742,0.87647 1.200587,1.24005 0.18633,0.15834 0.382416,0.30781 0.593809,0.43071 0.142004,0.0825 0.4763498,0.0177 0.4583367,0.18098 -0.025612,0.23215 -0.3259697,0.344 -0.5289957,0.45946 -0.12142,0.0691 0.183867,-0.21032 0.2758008,-0.31548 0.6697922,-1.14295 1.0449497,-2.42326 0.9777714,-3.75866 -0.044369,-0.18908 -0.065691,-0.3851 -0.133106,-0.56724 -0.3551788,-0.95963 -1.1093832,-0.86546 -1.9496502,-0.70578 -1.483166,0.27505 -2.935379,0.67638 -4.400069,1.03346 0,0 0.830397,-0.63257 0.830397,-0.63257 z"
         id="path920"
         style="fill:#ff8080;stroke:none;stroke-width:0.26458332;stroke-miterlimit:4;stroke-dasharray:none" />
    </g>
    <path
       style="fill:#ff8080;stroke:none;stroke-width:0.25092199;stroke-miterlimit:4;stroke-dasharray:none"
       id="path857"
       d="m -133.63732,163.2986 c 0.90764,1.03526 1.56516,2.27419 2.51757,3.27414 0.27377,0.28745 0.58555,0.53615 0.87833,0.80421 0.36731,0.22733 0.71435,0.49124 1.10192,0.68198 1.62181,0.79813 3.46779,1.04863 5.24029,1.2431 1.74503,0.19146 2.99612,0.23316 4.74868,0.32627 3.1219,0.10415 6.24934,0.18746 9.3724,0.0867 1.44538,0.12388 2.88125,-0.55674 4.32158,-0.30642 0.22312,0.0388 0.43556,0.12422 0.65335,0.18634 0.91766,0.45305 1.72613,1.15323 2.05982,2.15001 0.0739,0.22064 0.11282,0.45146 0.16923,0.67719 0.17706,0.62393 0.0891,1.29959 0.2941,1.91714 0.0264,0.0793 0.0538,0.1952 0.13594,0.21063 0.0671,0.0126 0.1942,-0.16034 0.12595,-0.16145 -0.23107,-0.004 -0.45087,0.10168 -0.6763,0.15252 0.34697,-1.03084 0.34852,-2.12834 0.58109,-3.18302 0.0737,-0.20875 0.13987,-0.46179 0.28413,-0.64091 0.0677,-0.0841 0.14736,-0.1635 0.24214,-0.21525 1.51508,-0.82728 1.54678,-0.68102 3.153249,-0.75156 2.652409,0.0272 5.308469,0.0496 7.957867,0.18893 2.625442,0.25117 5.238441,0.6082 7.867305,0.8343 2.346996,0.18538 4.702823,0.20047 7.055741,0.21255 1.605804,-0.0349 3.218903,0.0735 4.820004,-0.0701 0.901148,-0.14742 1.86148,-0.30598 2.669373,-0.76529 0.07135,-0.0406 -0.282581,0.12495 -0.240092,0.0547 0.13744,-0.22719 0.369016,-0.38187 0.553529,-0.57282 1.076769,-1.57911 1.490116,-3.50307 1.767693,-5.36755 0.07332,-0.52359 0.04618,-1.01001 -0.109104,-1.50887 0,0 0.870757,-0.47651 0.870757,-0.47651 v 0 c 0.153276,0.5173 0.184641,1.01977 0.10405,1.56043 -0.284734,1.87562 -0.698388,3.80817 -1.741323,5.41998 -0.18094,0.19618 -0.330196,0.42724 -0.54282,0.58855 -1.237241,0.93861 -2.579204,1.47735 -4.112601,1.64463 -1.598146,0.12857 -3.205289,0.0292 -4.807161,0.0497 -2.352791,-0.0206 -4.70931,-0.0283 -7.055722,-0.22203 -2.628505,-0.23872 -5.243178,-0.60046 -7.872063,-0.82692 -2.646366,-0.14685 -5.300077,-0.18944 -7.950072,-0.18221 -0.36952,0.0217 -0.739894,0.032 -1.10856,0.0652 -0.25588,0.023 -0.55222,0.24923 -0.76378,0.10345 -0.14725,-0.10144 0.28723,-0.21658 0.40726,-0.34911 0.0703,-0.0777 -0.18403,0.1061 -0.25604,0.18216 -0.15327,0.16186 -0.22746,0.41903 -0.30407,0.61611 -0.25077,1.05613 -0.25526,2.15524 -0.57067,3.19907 -0.33435,0.29681 -0.64703,0.61997 -1.00304,0.89042 -0.21053,0.15991 -0.30062,-0.0602 -0.3491,-0.21673 -0.19239,-0.62102 -0.11103,-1.29167 -0.28364,-1.91719 -0.0555,-0.22 -0.0943,-0.44491 -0.16645,-0.66001 -0.32516,-0.96899 -1.10864,-1.65305 -2.00988,-2.07894 -0.21383,-0.0567 -0.42299,-0.13546 -0.64149,-0.17001 -1.43016,-0.22617 -2.85817,0.42533 -4.2934,0.29686 -3.106,0.087 -6.21425,-0.0184 -9.31817,-0.13538 -1.71994,-0.0926 -3.04954,-0.14173 -4.76333,-0.3246 -1.79694,-0.19175 -3.66049,-0.43563 -5.30392,-1.24635 -0.39292,-0.19382 -0.74442,-0.46224 -1.11662,-0.69336 -0.29654,-0.27094 -0.61171,-0.52282 -0.88962,-0.81285 -0.95703,-0.99879 -1.62078,-2.23922 -2.56475,-3.24761 0,0 0.86044,-0.51427 0.86044,-0.51427 z"
       inkscape:connector-curvature="0" />
    <g
       id="g1590"
       transform="matrix(-1,0,0,1,-80.230211,35.840598)">
      <path
         style="fill:#ff8080;stroke:none;stroke-width:0.26458332;stroke-miterlimit:4;stroke-dasharray:none"
         id="path1586"
         d="m -19.445687,119.51652 c 0.238237,-1.70076 0.537378,-3.3859 1.09229,-5.01647 0.14468,-0.42513 0.31879,-0.83967 0.478184,-1.2595 0.764552,-1.98211 2.150947,-3.535 3.677409,-4.96158 0,0 0.931237,-0.38159 0.931237,-0.38159 v 0 c -1.554034,1.42831 -2.921684,2.92745 -3.711025,4.92629 -0.160142,0.41756 -0.335746,0.82951 -0.480426,1.25268 -0.550686,1.61067 -0.842385,3.2771 -1.048568,4.96167 0,0 -0.939101,0.4785 -0.939101,0.4785 z"
         inkscape:connector-curvature="0" />
      <path
         style="fill:#ff8080;stroke:none;stroke-width:0.26458332;stroke-miterlimit:4;stroke-dasharray:none"
         id="path1588"
         d="m -14.670823,106.02463 c 1.464831,-0.3448 2.913004,-0.74912 4.393696,-1.02295 0.9038852,-0.18163 1.655222,-0.19196 2.0271677,0.80981 0.070924,0.19102 0.094382,0.39644 0.1415735,0.59466 0.078078,1.35012 -0.2860731,2.65597 -0.9394552,3.82659 -0.4491186,0.56339 -0.4774732,0.70129 -1.532293,0.90739 -0.176543,0.0345 -0.33451,-0.13756 -0.486012,-0.23453 -0.703521,-0.45031 -1.245457,-1.10681 -1.799775,-1.71838 -0.709173,-0.80022 -1.455858,-1.59166 -2.419473,-2.07768 0,0 0.873094,-0.57204 0.873094,-0.57204 v 0 c 0.954169,0.5196 1.704041,1.31244 2.416596,2.1222 0.376074,0.41344 0.772742,0.87647 1.200587,1.24005 0.18633,0.15834 0.382416,0.30781 0.593809,0.43071 0.142004,0.0825 0.4763498,0.0177 0.4583367,0.18098 -0.025612,0.23215 -0.3259697,0.344 -0.5289957,0.45946 -0.12142,0.0691 0.183867,-0.21032 0.2758008,-0.31548 0.6697922,-1.14295 1.0449497,-2.42326 0.9777714,-3.75866 -0.044369,-0.18908 -0.065691,-0.3851 -0.133106,-0.56724 -0.3551788,-0.95963 -1.1093832,-0.86546 -1.9496502,-0.70578 -1.483166,0.27505 -2.935379,0.67638 -4.400069,1.03346 0,0 0.830397,-0.63257 0.830397,-0.63257 z"
         inkscape:connector-curvature="0" />
    </g>
    <path
       inkscape:connector-curvature="0"
       d="m -177.38737,163.61075 c 0.43591,1.03526 0.75171,2.27419 1.20913,3.27414 0.13148,0.28745 0.28122,0.53615 0.42184,0.80421 0.17641,0.22733 0.34308,0.49124 0.52922,0.68198 0.77892,0.79813 1.6655,1.04863 2.51679,1.2431 0.83809,0.19146 1.43896,0.23316 2.28067,0.32627 1.49937,0.10415 3.00141,0.18746 4.50134,0.0867 0.69418,0.12388 1.38379,-0.55674 2.07555,-0.30642 0.10716,0.0388 0.20919,0.12422 0.31378,0.18634 0.44073,0.45305 0.82902,1.15323 0.98929,2.15001 0.0355,0.22064 0.0542,0.45146 0.0813,0.67719 0.085,0.62393 0.0428,1.29959 0.14125,1.91714 0.0127,0.0793 0.0258,0.1952 0.0653,0.21063 0.0322,0.0126 0.0933,-0.16034 0.0605,-0.16145 -0.11098,-0.004 -0.21654,0.10168 -0.32481,0.15252 0.16664,-1.03084 0.16739,-2.12834 0.27908,-3.18302 0.0354,-0.20875 0.0672,-0.46179 0.13647,-0.64091 0.0325,-0.0841 0.0708,-0.1635 0.11629,-0.21525 0.72766,-0.82728 0.74288,-0.68102 1.51442,-0.75156 1.27389,0.0272 2.54953,0.0496 3.82197,0.18893 1.26094,0.25117 2.5159,0.6082 3.77848,0.8343 1.1272,0.18538 2.25865,0.20047 3.3887,0.21255 0.77123,-0.0349 1.54596,0.0735 2.31493,-0.0701 0.4328,-0.14742 0.89402,-0.30598 1.28203,-0.76529 0.0342,-0.0406 -0.13571,0.12495 -0.1153,0.0547 0.066,-0.22719 0.17723,-0.38187 0.26584,-0.57282 0.51715,-1.57911 0.71567,-3.50307 0.84898,-5.36755 0.0352,-0.52359 0.0222,-1.01001 -0.0524,-1.50887 0,0 0.41821,-0.47651 0.41821,-0.47651 v 0 c 0.0736,0.5173 0.0887,1.01977 0.05,1.56043 -0.13675,1.87562 -0.33542,3.80817 -0.83632,5.41998 -0.0869,0.19618 -0.15858,0.42724 -0.2607,0.58855 -0.59422,0.93861 -1.23873,1.47735 -1.97518,1.64463 -0.76755,0.12857 -1.53943,0.0292 -2.30877,0.0497 -1.12998,-0.0206 -2.26176,-0.0283 -3.38869,-0.22203 -1.2624,-0.23872 -2.51817,-0.60046 -3.78075,-0.82692 -1.27099,-0.14685 -2.5455,-0.18944 -3.81823,-0.18221 -0.17747,0.0217 -0.35536,0.032 -0.53241,0.0652 -0.1229,0.023 -0.26522,0.24923 -0.36683,0.10345 -0.0707,-0.10144 0.13795,-0.21658 0.1956,-0.34911 0.0338,-0.0777 -0.0884,0.1061 -0.12297,0.18216 -0.0736,0.16186 -0.10925,0.41903 -0.14604,0.61611 -0.12044,1.05613 -0.12259,2.15524 -0.27408,3.19907 -0.16058,0.29681 -0.31075,0.61997 -0.48173,0.89042 -0.10112,0.15991 -0.14438,-0.0602 -0.16767,-0.21673 -0.0924,-0.62102 -0.0533,-1.29167 -0.13622,-1.91719 -0.0267,-0.22 -0.0453,-0.44491 -0.0799,-0.66001 -0.15616,-0.96899 -0.53245,-1.65305 -0.96529,-2.07894 -0.1027,-0.0567 -0.20315,-0.13546 -0.30809,-0.17001 -0.68687,-0.22617 -1.37272,0.42533 -2.06202,0.29686 -1.49174,0.087 -2.98455,-0.0184 -4.47529,-0.13538 -0.82604,-0.0926 -1.46462,-0.14173 -2.28771,-0.3246 -0.86303,-0.19175 -1.75805,-0.43563 -2.54734,-1.24635 -0.18871,-0.19382 -0.35753,-0.46224 -0.53629,-0.69336 -0.14242,-0.27094 -0.29379,-0.52282 -0.42726,-0.81285 -0.45964,-0.99879 -0.77842,-2.23922 -1.23179,-3.24761 0,0 0.41325,-0.51427 0.41325,-0.51427 z"
       id="path1592"
       style="fill:#ff8080;stroke:none;stroke-width:0.17389376;stroke-miterlimit:4;stroke-dasharray:none" />
    <text
       xml:space="preserve"
       style="font-style:normal;font-weight:normal;font-size:10.58333302px;line-height:1;font-family:sans-serif;letter-spacing:0px;word-spacing:0px;fill:#808080;fill-opacity:1;stroke:none;stroke-width:0.26458332"
       x="-188.84888"
       y="183.03564"
       id="text871"><tspan
         sodipodi:role="line"
         x="-188.84888"
         y="183.03564"
         style="font-style:normal;font-variant:normal;font-weight:normal;font-stretch:normal;font-size:7.05555534px;line-height:1;font-family:Ubuntu;-inkscape-font-specification:Ubuntu;fill:#808080;stroke-width:0.26458332"
         id="tspan889">Der <tspan
   style="font-style:normal;font-variant:normal;font-weight:bold;font-stretch:normal;font-family:Ubuntu;-inkscape-font-specification:'Ubuntu Bold'"
   id="tspan1627">Name</tspan> der </tspan><tspan
         sodipodi:role="line"
         x="-188.84888"
         y="193.61897"
         style="font-style:normal;font-variant:normal;font-weight:normal;font-stretch:normal;font-size:7.05555534px;line-height:1;font-family:Ubuntu;-inkscape-font-specification:Ubuntu;fill:#808080;stroke-width:0.26458332"
         id="tspan1625">Funktion</tspan></text>
    <text
       xml:space="preserve"
       style="font-style:normal;font-weight:normal;font-size:10.58333302px;line-height:1;font-family:sans-serif;letter-spacing:0px;word-spacing:0px;fill:#808080;fill-opacity:1;stroke:none;stroke-width:0.26458332"
       x="-156.33571"
       y="135.46106"
       id="text871-1"><tspan
         sodipodi:role="line"
         x="-156.33571"
         y="135.46106"
         style="font-style:normal;font-variant:normal;font-weight:normal;font-stretch:normal;font-size:7.05555534px;line-height:1;font-family:Ubuntu;-inkscape-font-specification:Ubuntu;fill:#808080;stroke-width:0.26458332"
         id="tspan1625-0"><tspan
   style="font-style:normal;font-variant:normal;font-weight:bold;font-stretch:normal;font-family:Ubuntu;-inkscape-font-specification:'Ubuntu Bold'"
   id="tspan1680">Klammern</tspan>, daran erkennt man den</tspan><tspan
         sodipodi:role="line"
         x="-156.33571"
         y="146.04439"
         style="font-style:normal;font-variant:normal;font-weight:normal;font-stretch:normal;font-size:7.05555534px;line-height:1;font-family:Ubuntu;-inkscape-font-specification:Ubuntu;fill:#808080;stroke-width:0.26458332"
         id="tspan1678">                   Funktionsaufruf</tspan></text>
    <text
       xml:space="preserve"
       style="font-style:normal;font-weight:normal;font-size:10.58333302px;line-height:1;font-family:sans-serif;letter-spacing:0px;word-spacing:0px;fill:#808080;fill-opacity:1;stroke:none;stroke-width:0.26458332"
       x="-129.73169"
       y="183.03564"
       id="text871-1-9"><tspan
         sodipodi:role="line"
         x="-129.73169"
         y="183.03564"
         style="font-style:normal;font-variant:normal;font-weight:normal;font-stretch:normal;font-size:7.05555534px;line-height:1;font-family:Ubuntu;-inkscape-font-specification:Ubuntu;fill:#808080;stroke-width:0.26458332"
         id="tspan1625-0-3">Der übergebene <tspan
   style="font-style:normal;font-variant:normal;font-weight:bold;font-stretch:normal;font-family:Ubuntu;-inkscape-font-specification:'Ubuntu Bold';stroke-width:0.26458332"
   id="tspan1655-6">Wert</tspan> </tspan></text>
  </g>
</svg>
