<?xml version="1.0" encoding="UTF-8" standalone="no"?>
<!-- Created with Inkscape (http://www.inkscape.org/) -->

<svg
   xmlns:dc="http://purl.org/dc/elements/1.1/"
   xmlns:cc="http://creativecommons.org/ns#"
   xmlns:rdf="http://www.w3.org/1999/02/22-rdf-syntax-ns#"
   xmlns:svg="http://www.w3.org/2000/svg"
   xmlns="http://www.w3.org/2000/svg"
   xmlns:sodipodi="http://sodipodi.sourceforge.net/DTD/sodipodi-0.dtd"
   xmlns:inkscape="http://www.inkscape.org/namespaces/inkscape"
   width="273.53214mm"
   height="241.68697mm"
   viewBox="0 0 273.53215 241.68697"
   version="1.1"
   id="svg8"
   inkscape:version="0.92.2 5c3e80d, 2017-08-06"
   sodipodi:docname="variablen.svg">
  <defs
     id="defs2" />
  <sodipodi:namedview
     id="base"
     pagecolor="#ffffff"
     bordercolor="#666666"
     borderopacity="0.50196078"
     inkscape:pageopacity="0.0"
     inkscape:pageshadow="2"
     inkscape:zoom="0.7"
     inkscape:cx="616.93268"
     inkscape:cy="261.87028"
     inkscape:document-units="mm"
     inkscape:current-layer="layer1"
     showgrid="false"
     inkscape:window-width="1680"
     inkscape:window-height="966"
     inkscape:window-x="1920"
     inkscape:window-y="0"
     inkscape:window-maximized="1"
     fit-margin-top="0"
     fit-margin-left="0"
     fit-margin-right="0"
     fit-margin-bottom="0"
     inkscape:showpageshadow="false" />
  <metadata
     id="metadata5">
    <rdf:RDF>
      <cc:Work
         rdf:about="">
        <dc:format>image/svg+xml</dc:format>
        <dc:type
           rdf:resource="http://purl.org/dc/dcmitype/StillImage" />
        <dc:title></dc:title>
      </cc:Work>
    </rdf:RDF>
  </metadata>
  <g
     inkscape:label="Ebene 1"
     inkscape:groupmode="layer"
     id="layer1"
     transform="translate(113.3501,-95.454378)">
    <text
       xml:space="preserve"
       style="font-style:normal;font-weight:normal;font-size:10.58333302px;line-height:1.25;font-family:sans-serif;letter-spacing:0px;word-spacing:0px;fill:#000000;fill-opacity:1;stroke:none;stroke-width:0.26458332"
       x="-109.61309"
       y="131.44643"
       id="text817"><tspan
         sodipodi:role="line"
         id="tspan815"
         x="-109.61309"
         y="131.44643"
         style="font-style:normal;font-variant:normal;font-weight:normal;font-stretch:normal;font-family:monospace;-inkscape-font-specification:monospace;stroke-width:0.26458332"><tspan
   style="fill:#b380ff"
   id="tspan819">meineVariable</tspan> <tspan
   style="fill:#6c5353"
   id="tspan823">=</tspan> <tspan
   style="fill:#2ca05a"
   id="tspan821">&quot;Mein Text&quot;</tspan></tspan></text>
    <path
       style="fill:#ff8080;stroke:none;stroke-width:0.26458332;stroke-miterlimit:4;stroke-dasharray:none"
       id="path855"
       d="m -112.44022,130.24988 c 1.01433,1.96693 2.76365,3.33597 4.75868,4.23969 0.63054,0.28562 1.29545,0.48831 1.94317,0.73247 4.92129,1.41743 10.073896,1.39266 15.147377,1.25905 3.2815,-0.15851 6.564283,-0.27549 9.848688,-0.35097 1.075928,-0.0233 2.151986,-0.0399 3.228099,-0.0519 0.224912,-0.002 1.133483,-0.0253 1.39963,0.0216 0.192503,0.034 0.371907,0.12053 0.557858,0.1808 0.161865,0.13261 0.35555,0.23389 0.485593,0.39782 0.25695,0.32391 0.778425,1.45453 0.919811,1.77409 0.474199,1.07175 0.849312,2.16383 1.192707,3.28259 0.271568,0.81318 0.35351,1.67144 0.559805,2.4995 0.01998,0.0802 0.154178,0.18455 0.08669,0.2322 -1.081669,0.76385 -0.903597,0.46038 -0.849095,-0.16362 0.04526,-1.77145 -0.208391,-3.53802 -0.365575,-5.30063 0.03859,-0.58656 -0.2149,-1.64238 0.173538,-2.15954 0.347858,-0.46314 1.899015,-0.99785 1.952902,-1.02216 0.333103,-0.0419 0.664142,-0.10634 0.99931,-0.12575 0.960642,-0.0556 2.149885,0.0139 3.092305,0.0628 1.723273,0.0895 3.423999,0.26481 5.136454,0.47083 2.449766,0.37246 4.921607,0.49656 7.391598,0.64069 3.178821,0.1843 6.363359,0.22918 9.546635,0.26305 2.891396,0.0225 5.782913,0.0242 8.674373,0.0168 1.429959,-0.0376 2.864627,0.0438 4.292679,-0.0478 1.303221,-0.15056 2.527858,-0.66951 3.727013,-1.17686 0.200975,-0.11421 0.432112,-0.18687 0.602922,-0.34261 0.0906,-0.0826 -0.374851,0.23235 -0.350263,0.11223 0.04417,-0.21576 0.304657,-0.32054 0.429979,-0.50165 0.407533,-0.58892 0.565748,-1.25955 0.728287,-1.94282 0.110747,-0.6843 0.251603,-1.37813 0.159843,-2.07051 0,0 0.927728,-0.48791 0.927728,-0.48791 v 0 c 0.09023,0.70748 -0.04859,1.41365 -0.161837,2.11312 -0.501474,2.19926 -1.004355,2.66759 -3.14477,3.75781 -1.208191,0.50279 -2.440707,1.02246 -3.754091,1.15357 -1.41999,0.0769 -2.844713,-0.002 -4.266062,0.0209 -2.884001,-0.008 -5.768057,-0.007 -8.651963,-0.0344 -3.190319,-0.0349 -6.381689,-0.0822 -9.568158,-0.25309 -2.467854,-0.13643 -4.93599,-0.27042 -7.38128,-0.65593 -1.708454,-0.21296 -3.403489,-0.39069 -5.124468,-0.46955 -0.972701,-0.0446 -2.129962,-0.0999 -3.115376,-0.0243 -0.337315,0.0259 -0.66929,0.0993 -1.003935,0.14891 0.06948,-0.10073 0.327945,-0.27584 0.208446,-0.3022 -0.770231,-0.16991 -0.633489,2.08072 -0.615648,2.38487 0.144648,1.76656 0.390977,3.53199 0.387699,5.3055 -0.01749,0.76391 0.127027,0.74976 -1.002668,1.13819 -0.08353,0.0287 -0.05451,-0.16839 -0.07267,-0.25483 -0.307475,-1.46375 0.11955,0.30724 -0.288591,-1.52377 -0.07315,-0.32818 -0.16133,-0.65283 -0.241996,-0.97924 -0.33745,-1.11632 -0.705244,-2.20399 -1.186119,-3.26878 -0.143997,-0.31885 -0.654294,-1.39641 -0.92101,-1.72025 -0.125386,-0.15223 -0.310774,-0.24292 -0.466161,-0.36438 -0.180049,-0.0537 -0.354737,-0.13066 -0.540144,-0.16102 -0.263224,-0.0431 -1.161209,-0.0281 -1.382538,-0.0269 -1.067964,0.006 -2.135897,0.0173 -3.203718,0.0356 -3.271732,0.0651 -6.540944,0.19288 -9.810612,0.32341 -5.082231,0.10546 -10.242121,0.11783 -15.174001,-1.28448 -0.65372,-0.2454 -1.3246,-0.44921 -1.96116,-0.7362 -2.02082,-0.91107 -3.78306,-2.28623 -4.86579,-4.24076 0,0 0.90988,-0.52332 0.90988,-0.52332 z"
       inkscape:connector-curvature="0" />
    <path
       style="fill:#ff8080;stroke:none;stroke-width:0.26458332;stroke-miterlimit:4;stroke-dasharray:none"
       id="path857"
       d="m -7.7038302,128.77618 c 0.9570511,1.09163 1.6503647,2.39801 2.6546275,3.4524 0.2886858,0.3031 0.6174348,0.56534 0.9261522,0.848 0.387308,0.2397 0.7532505,0.51798 1.1619233,0.7191 1.7101046,0.84159 3.65658893,1.10573 5.5255837,1.31079 1.8400476,0.20188 3.1592387,0.24585 5.0072202,0.34403 3.2918713,0.10982 6.5895743,0.19766 9.8826823,0.0914 1.524064,0.13062 3.03811,-0.58705 4.556852,-0.32311 0.235273,0.0409 0.459285,0.13099 0.688928,0.19649 0.967625,0.47772 1.82011,1.21602 2.171969,2.26707 0.07788,0.23265 0.118958,0.47604 0.178437,0.71406 0.186711,0.6579 0.09385,1.37034 0.310116,2.02151 0.02777,0.0836 0.05675,0.20583 0.143346,0.2221 0.07073,0.0133 0.204765,-0.16907 0.132805,-0.17024 -0.243645,-0.004 -0.475416,0.10722 -0.713124,0.16083 0.365869,-1.08697 0.3675,-2.24422 0.612729,-3.35632 0.07765,-0.22012 0.147489,-0.48693 0.299595,-0.67581 0.07142,-0.0887 0.155381,-0.1724 0.255327,-0.22697 1.597563,-0.87232 1.630996,-0.71809 3.324932,-0.79247 2.796816,0.0287 5.597483,0.0523 8.391126,0.19921 2.768385,0.26485 5.523645,0.64131 8.295637,0.87972 2.474778,0.19548 4.958866,0.21139 7.439888,0.22413 1.693232,-0.0368 3.394154,0.0775 5.082426,-0.0739 0.950211,-0.15544 1.962827,-0.32264 2.814706,-0.80695 0.07524,-0.0428 -0.297966,0.13175 -0.253164,0.0577 0.144923,-0.23956 0.389109,-0.40267 0.583666,-0.60401 1.135393,-1.66509 1.571246,-3.69379 1.863936,-5.65979 0.07731,-0.55209 0.0487,-1.065 -0.115046,-1.59102 0,0 0.918165,-0.50245 0.918165,-0.50245 v 0 c 0.161621,0.54547 0.194696,1.07529 0.109717,1.64539 -0.300238,1.97774 -0.736414,4.0155 -1.836131,5.71507 -0.190791,0.20686 -0.348173,0.4505 -0.572371,0.62059 -1.304604,0.98971 -2.719628,1.55778 -4.33651,1.73417 -1.685157,0.13557 -3.3798,0.0308 -5.068887,0.0524 -2.480887,-0.0217 -4.965705,-0.0298 -7.439866,-0.23412 -2.771614,-0.25172 -5.528641,-0.63315 -8.300652,-0.87194 -2.790449,-0.15485 -5.58864,-0.19976 -8.382912,-0.19213 -0.389639,0.0229 -0.78018,0.0337 -1.168919,0.0687 -0.269817,0.0243 -0.582287,0.2628 -0.805368,0.10909 -0.155255,-0.10697 0.302866,-0.22838 0.429438,-0.36812 0.07414,-0.0819 -0.194041,0.11188 -0.269981,0.19208 -0.161616,0.17067 -0.23984,0.44184 -0.32063,0.64965 -0.264416,1.11363 -0.269155,2.27258 -0.601735,3.37324 -0.352552,0.31297 -0.682261,0.65373 -1.057655,0.9389 -0.221985,0.16862 -0.316982,-0.0635 -0.368102,-0.22853 -0.202869,-0.65483 -0.117073,-1.36199 -0.299087,-2.02157 -0.0585,-0.23198 -0.0994,-0.46913 -0.175506,-0.69594 -0.342859,-1.02175 -1.168998,-1.74305 -2.119312,-2.19213 -0.225471,-0.0598 -0.44602,-0.14284 -0.676412,-0.17927 -1.508023,-0.23848 -3.013783,0.44849 -4.52716,0.31303 -3.275092,0.0917 -6.552574,-0.0194 -9.8254772,-0.14275 -1.8135881,-0.0977 -3.2155746,-0.14945 -5.0226744,-0.34228 -1.89477176,-0.20219 -3.8597821,-0.45935 -5.5926896,-1.3142 -0.4143089,-0.20438 -0.7849369,-0.48741 -1.1774053,-0.73111 -0.3126833,-0.2857 -0.6450142,-0.55129 -0.9380498,-0.85711 -1.0091472,-1.05317 -1.7090374,-2.36113 -2.7043938,-3.42442 0,0 0.9072899,-0.54227 0.9072899,-0.54227 z"
       inkscape:connector-curvature="0" />
    <path
       style="fill:#ff8080;stroke:none;stroke-width:0.26458332;stroke-miterlimit:4;stroke-dasharray:none"
       id="path867"
       d="m -19.318093,121.79214 c 0.129667,-0.10706 -0.937331,0.49733 -0.707361,0.365 0.160456,-0.0923 0.330537,-0.36909 0.48606,-0.26867 0.144307,0.0932 -0.274379,0.20756 -0.401101,0.32353 -0.26104,0.23887 -0.538204,0.57244 -0.768688,0.83655 -0.789086,0.9076 -1.230196,2.02232 -1.53649,3.16932 -0.235875,0.94954 -0.264904,1.9293 -0.282346,2.90225 0.02141,1.47086 0.438804,2.12292 1.518725,3.07159 1.503999,1.00556 3.304126,1.2217 5.061872,1.38395 1.445528,0.0751 2.903396,0.20106 4.341513,-0.011 0.165715,-0.0544 0.325894,-0.19624 0.497145,-0.16318 0.156619,0.0302 -0.423317,0.33089 -0.446161,0.17302 -0.02961,-0.20461 0.282897,-0.30317 0.402974,-0.47147 0.405571,-0.56842 0.582779,-1.20667 0.767221,-1.86849 0.297802,-1.35471 0.308588,-2.74821 0.321519,-4.12865 -0.0039,-1.29751 -0.501067,-2.50119 -1.294965,-3.5083 -0.857139,-0.93219 -2.006602,-1.43364 -3.144606,-1.9273 -1.194138,-0.49288 -2.464199,-0.64873 -3.741132,-0.73031 -1.153633,-0.12454 -2.234848,0.28552 -3.298249,0.67274 -0.627637,0.29083 -0.585324,0.28336 0.09338,-0.0889 0,0 -0.974141,0.37638 -0.974141,0.37638 v 0 c 1.393186,-0.81066 0.81096,-0.53374 1.698206,-0.92582 1.071993,-0.38357 2.16007,-0.77158 3.319238,-0.63511 1.285423,0.089 2.56077,0.25582 3.759977,0.76036 1.151885,0.50244 2.314876,1.01663 3.175737,1.96826 0.798378,1.02837 1.3147436,2.25312 1.3247499,3.57128 -0.014647,1.38821 -0.024035,2.78871 -0.3112339,4.15317 -0.4729924,1.75021 -1.011998,2.86431 -2.979206,3.39271 -1.438942,0.18861 -2.893939,0.0596 -4.337417,-0.0215 -1.778202,-0.17119 -3.593744,-0.40348 -5.110457,-1.42874 -1.095337,-0.96997 -1.534751,-1.64753 -1.573315,-3.14375 0.01848,-0.98073 0.03954,-1.96922 0.276126,-2.92697 0.302862,-1.15736 0.733582,-2.28937 1.518744,-3.21291 0.204823,-0.23917 0.527527,-0.62841 0.758157,-0.85061 0.683335,-0.65838 1.57482,-1.05009 2.420341,-1.45706 0,0 -0.834812,0.64856 -0.834812,0.64856 z"
       inkscape:connector-curvature="0" />
    <text
       xml:space="preserve"
       style="font-style:normal;font-weight:normal;font-size:10.58333302px;line-height:1;font-family:sans-serif;letter-spacing:0px;word-spacing:0px;fill:#808080;fill-opacity:1;stroke:none;stroke-width:0.26458332"
       x="-103.96784"
       y="152.21523"
       id="text871"><tspan
         sodipodi:role="line"
         x="-103.96784"
         y="152.21523"
         style="font-style:normal;font-variant:normal;font-weight:normal;font-stretch:normal;font-size:7.05555534px;line-height:1;font-family:Ubuntu;-inkscape-font-specification:Ubuntu;fill:#808080;stroke-width:0.26458332"
         id="tspan885"><tspan
   style="font-style:normal;font-variant:normal;font-weight:bold;font-stretch:normal;font-family:Ubuntu;-inkscape-font-specification:'Ubuntu Bold'"
   id="tspan985">LINKS</tspan> steht die <tspan
   style="font-style:normal;font-variant:normal;font-weight:bold;font-stretch:normal;font-family:Ubuntu;-inkscape-font-specification:'Ubuntu Bold'"
   id="tspan993">Variable</tspan></tspan><tspan
         sodipodi:role="line"
         x="-103.96784"
         y="162.79855"
         style="font-style:normal;font-variant:normal;font-weight:normal;font-stretch:normal;font-size:7.05555534px;line-height:1;font-family:Ubuntu;-inkscape-font-specification:Ubuntu;fill:#808080;stroke-width:0.26458332"
         id="tspan889">deren Wert gesetzt wird</tspan></text>
    <text
       id="text906"
       y="150.62775"
       x="-9.2470198"
       style="font-style:normal;font-weight:normal;font-size:10.58333302px;line-height:1;font-family:sans-serif;letter-spacing:0px;word-spacing:0px;fill:#808080;fill-opacity:1;stroke:none;stroke-width:0.26458332"
       xml:space="preserve"><tspan
         id="tspan904"
         style="font-style:normal;font-variant:normal;font-weight:normal;font-stretch:normal;font-size:7.05555534px;line-height:1;font-family:Ubuntu;-inkscape-font-specification:Ubuntu;fill:#808080;stroke-width:0.26458332"
         y="150.62775"
         x="-9.2470198"
         sodipodi:role="line"><tspan
   style="font-style:normal;font-variant:normal;font-weight:bold;font-stretch:normal;font-family:Ubuntu;-inkscape-font-specification:'Ubuntu Bold'"
   id="tspan991">RECHTS</tspan> steht der neue</tspan><tspan
         style="font-style:normal;font-variant:normal;font-weight:normal;font-stretch:normal;font-size:7.05555534px;line-height:1;font-family:Ubuntu;-inkscape-font-specification:Ubuntu;fill:#808080;stroke-width:0.26458332"
         y="161.21107"
         x="-9.2470198"
         sodipodi:role="line"
         id="tspan910"><tspan
   style="font-style:normal;font-variant:normal;font-weight:bold;font-stretch:normal;font-family:Ubuntu;-inkscape-font-specification:'Ubuntu Bold'"
   id="tspan995">Wert</tspan> der Variablen</tspan></text>
    <path
       style="fill:#ff8080;stroke:none;stroke-width:0.26458332;stroke-miterlimit:4;stroke-dasharray:none"
       id="path916"
       d="m -19.445687,119.51652 c 0.238237,-1.70076 0.537378,-3.3859 1.09229,-5.01647 0.14468,-0.42513 0.31879,-0.83967 0.478184,-1.2595 0.764552,-1.98211 2.150947,-3.535 3.677409,-4.96158 0,0 0.931237,-0.38159 0.931237,-0.38159 v 0 c -1.554034,1.42831 -2.921684,2.92745 -3.711025,4.92629 -0.160142,0.41756 -0.335746,0.82951 -0.480426,1.25268 -0.550686,1.61067 -0.842385,3.2771 -1.048568,4.96167 0,0 -0.939101,0.4785 -0.939101,0.4785 z"
       inkscape:connector-curvature="0" />
    <path
       style="fill:#ff8080;stroke:none;stroke-width:0.26458332;stroke-miterlimit:4;stroke-dasharray:none"
       id="path918"
       d="m -14.363072,107.04716 c 0.586643,0.38531 1.178713,0.76227 1.767982,1.14356 0,0 -0.856736,0.55059 -0.856736,0.55059 v 0 c -0.59559,-0.38009 -1.192039,-0.75853 -1.799588,-1.11938 0,0 0.888342,-0.57477 0.888342,-0.57477 z"
       inkscape:connector-curvature="0" />
    <path
       style="fill:#ff8080;stroke:none;stroke-width:0.26458332;stroke-miterlimit:4;stroke-dasharray:none"
       id="path920"
       d="m -14.670823,106.02463 c 1.464831,-0.3448 2.913004,-0.74912 4.393696,-1.02295 0.9038852,-0.18163 1.655222,-0.19196 2.0271677,0.80981 0.070924,0.19102 0.094382,0.39644 0.1415735,0.59466 0.078078,1.35012 -0.2860731,2.65597 -0.9394552,3.82659 -0.4491186,0.56339 -0.4774732,0.70129 -1.532293,0.90739 -0.176543,0.0345 -0.33451,-0.13756 -0.486012,-0.23453 -0.703521,-0.45031 -1.245457,-1.10681 -1.799775,-1.71838 -0.709173,-0.80022 -1.455858,-1.59166 -2.419473,-2.07768 0,0 0.873094,-0.57204 0.873094,-0.57204 v 0 c 0.954169,0.5196 1.704041,1.31244 2.416596,2.1222 0.376074,0.41344 0.772742,0.87647 1.200587,1.24005 0.18633,0.15834 0.382416,0.30781 0.593809,0.43071 0.142004,0.0825 0.4763498,0.0177 0.4583367,0.18098 -0.025612,0.23215 -0.3259697,0.344 -0.5289957,0.45946 -0.12142,0.0691 0.183867,-0.21032 0.2758008,-0.31548 0.6697922,-1.14295 1.0449497,-2.42326 0.9777714,-3.75866 -0.044369,-0.18908 -0.065691,-0.3851 -0.133106,-0.56724 -0.3551788,-0.95963 -1.1093832,-0.86546 -1.9496502,-0.70578 -1.483166,0.27505 -2.935379,0.67638 -4.400069,1.03346 0,0 0.830397,-0.63257 0.830397,-0.63257 z"
       inkscape:connector-curvature="0" />
    <text
       id="text937"
       y="100.92949"
       x="-6.7519569"
       style="font-style:normal;font-weight:normal;font-size:10.58333302px;line-height:1;font-family:sans-serif;letter-spacing:0px;word-spacing:0px;fill:#808080;fill-opacity:1;stroke:none;stroke-width:0.26458332"
       xml:space="preserve"><tspan
         style="font-style:normal;font-variant:normal;font-weight:normal;font-stretch:normal;font-size:7.05555534px;line-height:1;font-family:Ubuntu;-inkscape-font-specification:Ubuntu;fill:#808080;stroke-width:0.26458332"
         y="100.92949"
         x="-6.7519569"
         sodipodi:role="line"
         id="tspan941">Das <tspan
   style="font-style:normal;font-variant:normal;font-weight:bold;font-stretch:normal;font-family:Ubuntu;-inkscape-font-specification:'Ubuntu Bold'"
   id="tspan989">=</tspan> <tspan
   style="font-style:normal;font-variant:normal;font-weight:bold;font-stretch:normal;font-family:Ubuntu;-inkscape-font-specification:'Ubuntu Bold'"
   id="tspan997">Zeichen</tspan> symbolisiert, dass</tspan><tspan
         style="font-style:normal;font-variant:normal;font-weight:normal;font-stretch:normal;font-size:7.05555534px;line-height:1;font-family:Ubuntu;-inkscape-font-specification:Ubuntu;fill:#808080;stroke-width:0.26458332"
         y="111.51283"
         x="-6.7519569"
         sodipodi:role="line"
         id="tspan945"> eine Variable erstellt/geändert wird</tspan></text>
    <text
       id="text1021"
       y="189.65482"
       x="-109.61309"
       style="font-style:normal;font-weight:normal;font-size:10.58333302px;line-height:1.25;font-family:sans-serif;letter-spacing:0px;word-spacing:0px;fill:#000000;fill-opacity:1;stroke:none;stroke-width:0.26458332"
       xml:space="preserve"><tspan
         style="font-style:normal;font-variant:normal;font-weight:normal;font-stretch:normal;font-family:monospace;-inkscape-font-specification:monospace;stroke-width:0.26458332"
         y="189.65482"
         x="-109.61309"
         id="tspan1019"
         sodipodi:role="line"><tspan
   id="tspan1013"
   style="fill:#b380ff">meineVariable</tspan> <tspan
   id="tspan1015"
   style="fill:#6c5353">=</tspan> <tspan
   id="tspan1017"
   style="fill:#2ca05a">&quot;Mein&quot; + &quot;Text&quot;</tspan></tspan></text>
    <path
       inkscape:connector-curvature="0"
       d="m -5.868044,188.04289 c 1.2189548,1.09163 2.1019984,2.39801 3.3810847,3.4524 0.3676866,0.3031 0.7864001,0.56534 1.1796001,0.848 0.49329755,0.2397 0.9593827,0.51798 1.47989156,0.7191 2.17808634,0.84159 4.65723974,1.10573 7.03769784,1.31079 2.3435891,0.20188 4.0237858,0.24585 6.3774798,0.34403 4.192717,0.10982 8.392859,0.19766 12.587148,0.0914 1.941135,0.13062 3.86951,-0.58705 5.803866,-0.32311 0.299657,0.0409 0.584972,0.13099 0.877458,0.19649 1.232423,0.47772 2.318196,1.21602 2.766344,2.26707 0.09919,0.23265 0.151511,0.47604 0.227267,0.71406 0.237806,0.6579 0.119533,1.37034 0.394981,2.02151 0.03537,0.0836 0.07228,0.20583 0.182574,0.2221 0.09009,0.0133 0.2608,-0.16907 0.169148,-0.17024 -0.31032,-0.004 -0.605517,0.10722 -0.908275,0.16083 0.465991,-1.08697 0.468069,-2.24422 0.780406,-3.35632 0.0989,-0.22012 0.187851,-0.48693 0.381582,-0.67581 0.09096,-0.0887 0.197902,-0.1724 0.325199,-0.22697 2.034747,-0.87232 2.077329,-0.71809 4.234822,-0.79247 3.562184,0.0287 7.129273,0.0523 10.687416,0.19921 3.525972,0.26485 7.035228,0.64131 10.565795,0.87972 3.152018,0.19548 6.315894,0.21139 9.475864,0.22413 2.156597,-0.0368 4.322988,0.0775 6.473267,-0.0739 1.210243,-0.15544 2.499969,-0.32264 3.58497,-0.80695 0.09583,-0.0428 -0.379506,0.13175 -0.322444,0.0577 0.184582,-0.23956 0.495591,-0.40267 0.74339,-0.60401 1.446101,-1.66509 2.001229,-3.69379 2.374015,-5.65979 0.09847,-0.55209 0.06203,-1.065 -0.146529,-1.59102 0,0 1.169427,-0.50245 1.169427,-0.50245 v 0 c 0.20585,0.54547 0.247976,1.07529 0.139742,1.64539 -0.3824,1.97774 -0.937939,4.0155 -2.338601,5.71507 -0.243002,0.20686 -0.443453,0.4505 -0.729004,0.62059 -1.661618,0.98971 -3.463873,1.55778 -5.523226,1.73417 -2.146312,0.13557 -4.304706,0.0308 -6.456023,0.0524 -3.159799,-0.0217 -6.324604,-0.0298 -9.475836,-0.23412 -3.530086,-0.25172 -7.041592,-0.63315 -10.572183,-0.87194 -3.554075,-0.15485 -7.11801,-0.19976 -10.676954,-0.19213 -0.496266,0.0229 -0.993681,0.0337 -1.488802,0.0687 -0.343654,0.0243 -0.741633,0.2628 -1.025762,0.10909 -0.197742,-0.10697 0.385747,-0.22838 0.546957,-0.36812 0.09443,-0.0819 -0.247142,0.11188 -0.343864,0.19208 -0.205843,0.17067 -0.305473,0.44184 -0.408372,0.64965 -0.336775,1.11363 -0.342811,2.27258 -0.766404,3.37324 -0.44903,0.31297 -0.868966,0.65373 -1.34709,0.9389 -0.282732,0.16862 -0.403726,-0.0635 -0.468835,-0.22853 -0.258386,-0.65483 -0.149111,-1.36199 -0.380934,-2.02157 -0.07451,-0.23198 -0.126602,-0.46913 -0.223535,-0.69594 -0.436685,-1.02175 -1.488902,-1.74305 -2.699276,-2.19213 -0.287173,-0.0598 -0.568077,-0.14284 -0.861517,-0.17927 -1.920704,-0.23848 -3.838526,0.44849 -5.766049,0.31303 -4.171343,0.0917 -8.345731,-0.0194 -12.514288,-0.14275 -2.309889,-0.0977 -4.0955384,-0.14945 -6.3971636,-0.34228 -2.4132893,-0.20219 -4.9160382,-0.45935 -7.12316756,-1.3142 -0.52768734,-0.20438 -0.99974034,-0.48741 -1.49961044,-0.73111 -0.3982512,-0.2857 -0.8215268,-0.55129 -1.1947536,-0.85711 -1.2853073,-1.05317 -2.1767273,-2.36113 -3.4444698,-3.42442 0,0 1.155576,-0.54227 1.155576,-0.54227 z"
       id="path1023"
       style="fill:#ff8080;stroke:none;stroke-width:0.29859924;stroke-miterlimit:4;stroke-dasharray:none" />
    <text
       xml:space="preserve"
       style="font-style:normal;font-weight:normal;font-size:10.58333302px;line-height:1;font-family:sans-serif;letter-spacing:0px;word-spacing:0px;fill:#808080;fill-opacity:1;stroke:none;stroke-width:0.26458332"
       x="-95.282532"
       y="208.83614"
       id="text1046"><tspan
         id="tspan1044"
         sodipodi:role="line"
         x="-95.282532"
         y="208.83614"
         style="font-style:normal;font-variant:normal;font-weight:normal;font-stretch:normal;font-size:7.05555534px;line-height:1;font-family:Ubuntu;-inkscape-font-specification:Ubuntu;fill:#808080;stroke-width:0.26458332"><tspan
   id="tspan1038"
   style="font-style:normal;font-variant:normal;font-weight:bold;font-stretch:normal;font-family:Ubuntu;-inkscape-font-specification:'Ubuntu Bold'">RECHTS</tspan> kann auch eine Berechnung/ein Operator stehen, z.B: <tspan
   style="font-style:normal;font-variant:normal;font-weight:bold;font-stretch:normal;font-family:Ubuntu;-inkscape-font-specification:'Ubuntu Bold';fill:#2ca02c"
   id="tspan1056">+</tspan> </tspan><tspan
         sodipodi:role="line"
         x="-95.282532"
         y="219.41946"
         style="font-style:normal;font-variant:normal;font-weight:normal;font-stretch:normal;font-size:7.05555534px;line-height:1;font-family:Ubuntu;-inkscape-font-specification:Ubuntu;fill:#808080;stroke-width:0.26458332"
         id="tspan1054">Der <tspan
   style="font-style:normal;font-variant:normal;font-weight:bold;font-stretch:normal;font-family:Ubuntu;-inkscape-font-specification:'Ubuntu Bold'"
   id="tspan1060">Wert</tspan> der Variablen ist das <tspan
   style="font-style:normal;font-variant:normal;font-weight:bold;font-stretch:normal;font-family:Ubuntu;-inkscape-font-specification:'Ubuntu Bold'"
   id="tspan1062">Ergebnis</tspan> der Operation.</tspan><tspan
         sodipodi:role="line"
         x="-95.282532"
         y="230.00281"
         style="font-style:normal;font-variant:normal;font-weight:normal;font-stretch:normal;font-size:7.05555534px;line-height:1;font-family:Ubuntu;-inkscape-font-specification:Ubuntu;fill:#808080;stroke-width:0.26458332"
         id="tspan1052" /></text>
    <text
       xml:space="preserve"
       style="font-style:normal;font-weight:normal;font-size:10.58333302px;line-height:1.25;font-family:sans-serif;letter-spacing:0px;word-spacing:0px;fill:#000000;fill-opacity:1;stroke:none;stroke-width:0.26458332"
       x="-109.61309"
       y="295.48813"
       id="text1072"><tspan
         sodipodi:role="line"
         id="tspan1070"
         x="-109.61309"
         y="295.48813"
         style="font-style:normal;font-variant:normal;font-weight:normal;font-stretch:normal;font-family:monospace;-inkscape-font-specification:monospace;stroke-width:0.26458332"><tspan
   style="fill:#b380ff"
   id="tspan1064">meineVariable</tspan> <tspan
   style="fill:#6c5353"
   id="tspan1066">= <tspan
   style="fill:#2ca05a;fill-opacity:1"
   id="tspan1140">&quot;Hallo &quot;</tspan> +</tspan> <tspan
   style="fill:#006680"
   id="tspan1096">input</tspan><tspan
   style="fill:#808080"
   id="tspan1098">(</tspan><tspan
   style="fill:#2ca05a;fill-opacity:1"
   id="tspan1090">&quot;Name?&quot;</tspan><tspan
   style="fill:#808080"
   id="tspan1068">)</tspan></tspan></text>
    <text
       id="text1088"
       y="314.6694"
       x="-95.282532"
       style="font-style:normal;font-weight:normal;font-size:10.58333302px;line-height:1;font-family:sans-serif;letter-spacing:0px;word-spacing:0px;fill:#808080;fill-opacity:1;stroke:none;stroke-width:0.26458332"
       xml:space="preserve"><tspan
         style="font-style:normal;font-variant:normal;font-weight:normal;font-stretch:normal;font-size:7.05555534px;line-height:1;font-family:Ubuntu;-inkscape-font-specification:Ubuntu;fill:#808080;stroke-width:0.26458332"
         y="314.6694"
         x="-95.282532"
         sodipodi:role="line"
         id="tspan1078"><tspan
   style="font-style:normal;font-variant:normal;font-weight:bold;font-stretch:normal;font-family:Ubuntu;-inkscape-font-specification:'Ubuntu Bold'"
   id="tspan1074">RECHTS</tspan> kann auch eine Kombination aus <tspan
   style="font-style:normal;font-variant:normal;font-weight:bold;font-stretch:normal;font-family:Ubuntu;-inkscape-font-specification:'Ubuntu Bold'"
   id="tspan1163">Werten, Operationen und Funktions-</tspan></tspan><tspan
         style="font-style:normal;font-variant:normal;font-weight:normal;font-stretch:normal;font-size:7.05555534px;line-height:1;font-family:Ubuntu;-inkscape-font-specification:Ubuntu;fill:#808080;stroke-width:0.26458332"
         y="325.25275"
         x="-95.282532"
         sodipodi:role="line"
         id="tspan1150"><tspan
   style="font-style:normal;font-variant:normal;font-weight:bold;font-stretch:normal;font-family:Ubuntu;-inkscape-font-specification:'Ubuntu Bold'"
   id="tspan1165">aufrufen</tspan> stehen.  Der <tspan
   id="tspan1080"
   style="font-style:normal;font-variant:normal;font-weight:bold;font-stretch:normal;font-family:Ubuntu;-inkscape-font-specification:'Ubuntu Bold'">Wert</tspan> der Variablen ist <tspan
   style="font-style:normal;font-variant:normal;font-weight:bold;font-stretch:normal;font-family:Ubuntu;-inkscape-font-specification:'Ubuntu Bold'"
   id="tspan1167">Ergebnis</tspan> der <tspan
   style="font-style:normal;font-variant:normal;font-weight:bold;font-stretch:normal;font-family:Ubuntu;-inkscape-font-specification:'Ubuntu Bold'"
   id="tspan1161">Auswertung aller</tspan></tspan><tspan
         style="font-style:normal;font-variant:normal;font-weight:normal;font-stretch:normal;font-size:7.05555534px;line-height:1;font-family:Ubuntu;-inkscape-font-specification:Ubuntu;fill:#808080;stroke-width:0.26458332"
         y="335.83606"
         x="-95.282532"
         sodipodi:role="line"
         id="tspan1159">Operationen und Funktionsaufrufe.</tspan><tspan
         id="tspan1086"
         style="font-style:normal;font-variant:normal;font-weight:normal;font-stretch:normal;font-size:7.05555534px;line-height:1;font-family:Ubuntu;-inkscape-font-specification:Ubuntu;fill:#808080;stroke-width:0.26458332"
         y="346.4194"
         x="-95.282532"
         sodipodi:role="line" /></text>
    <path
       style="fill:#ff8080;stroke:none;stroke-width:0.36256292;stroke-miterlimit:4;stroke-dasharray:none"
       id="path1104"
       d="m -9.6288693,240.95956 c 1.7971196,1.09163 3.0990012,2.39801 4.9847732,3.4524 0.5420848,0.3031 1.159399,0.56534 1.7390983,0.848 0.7272744,0.2397 1.4144292,0.51798 2.18182164,0.7191 3.21117836,0.84159 6.86622356,1.10573 10.37576086,1.31079 3.4551813,0.20188 5.9323143,0.24585 9.4023933,0.34403 6.181372,0.10982 12.373692,0.19766 18.55738,0.0914 2.86184,0.13062 5.704866,-0.58705 8.55671,-0.32311 0.441787,0.0409 0.862431,0.13099 1.293646,0.19649 1.816976,0.47772 3.417744,1.21602 4.078453,2.26707 0.146237,0.23265 0.223376,0.47604 0.335064,0.71406 0.350599,0.6579 0.176229,1.37034 0.582324,2.02151 0.05215,0.0836 0.106563,0.20583 0.269171,0.2221 0.132822,0.0133 0.384501,-0.16907 0.249378,-0.17024 -0.45751,-0.004 -0.892722,0.10722 -1.339081,0.16083 0.687016,-1.08697 0.69008,-2.24422 1.150562,-3.35632 0.145809,-0.22012 0.27695,-0.48693 0.56257,-0.67581 0.134103,-0.0887 0.29177,-0.1724 0.479446,-0.22697 2.999851,-0.87232 3.06263,-0.71809 6.243447,-0.79247 5.25177,0.0287 10.510772,0.0523 15.756584,0.19921 5.198382,0.26485 10.372119,0.64131 15.577276,0.87972 4.647058,0.19548 9.311592,0.21139 13.970372,0.22413 3.1795,-0.0368 6.37343,0.0775 9.54362,-0.0739 1.78428,-0.15544 3.68574,-0.32264 5.28535,-0.80695 0.14129,-0.0428 -0.55949,0.13175 -0.47537,0.0577 0.27213,-0.23956 0.73066,-0.40267 1.09599,-0.60401 2.13199,-1.66509 2.95043,-3.69379 3.50003,-5.65979 0.14518,-0.55209 0.0914,-1.065 -0.21602,-1.59102 0,0 1.72409,-0.50245 1.72409,-0.50245 v 0 c 0.3035,0.54547 0.3656,1.07529 0.20602,1.64539 -0.56377,1.97774 -1.3828,4.0155 -3.44782,5.71507 -0.35826,0.20686 -0.65379,0.4505 -1.07477,0.62059 -2.44975,0.98971 -5.10684,1.55778 -8.14296,1.73417 -3.16434,0.13557 -6.34648,0.0308 -9.5182,0.0524 -4.658519,-0.0217 -9.32443,-0.0298 -13.97033,-0.23412 -5.204447,-0.25172 -10.381503,-0.63315 -15.586693,-0.87194 -5.239816,-0.15485 -10.494167,-0.19976 -15.741161,-0.19213 -0.731651,0.0229 -1.464995,0.0337 -2.194958,0.0687 -0.506652,0.0243 -1.093398,0.2628 -1.512293,0.10909 -0.291533,-0.10697 0.568712,-0.22838 0.806386,-0.36812 0.139219,-0.0819 -0.364365,0.11188 -0.506963,0.19208 -0.303477,0.17067 -0.450362,0.44184 -0.602068,0.64965 -0.496512,1.11363 -0.505411,2.27258 -1.129918,3.37324 -0.662011,0.31297 -1.281127,0.65373 -1.986031,0.9389 -0.416835,0.16862 -0.595219,-0.0635 -0.691209,-0.22853 -0.380942,-0.65483 -0.219836,-1.36199 -0.561616,-2.02157 -0.10985,-0.23198 -0.18665,-0.46913 -0.32956,-0.69594 -0.64381,-1.02175 -2.195106,-1.74305 -3.979574,-2.19213 -0.423383,-0.0598 -0.837523,-0.14284 -1.270146,-0.17927 -2.831716,-0.23848 -5.659183,0.44849 -8.500953,0.31303 -6.14986,0.0917 -12.30421,-0.0194 -18.449963,-0.14275 -3.405496,-0.0977 -6.038101,-0.14945 -9.4314139,-0.34228 -3.5579404,-0.20219 -7.24777258,-0.45935 -10.5017695,-1.3142 -0.7779757,-0.20438 -1.4739289,-0.48741 -2.2108933,-0.73111 -0.5871464,-0.2857 -1.2111867,-0.55129 -1.7614394,-0.85711 -1.8949437,-1.05317 -3.2091748,-2.36113 -5.0782229,-3.42442 0,0 1.7036797,-0.54227 1.7036797,-0.54227 z"
       inkscape:connector-curvature="0" />
    <text
       id="text1120"
       y="241.51312"
       x="-109.61309"
       style="font-style:normal;font-weight:normal;font-size:10.58333302px;line-height:1.25;font-family:sans-serif;letter-spacing:0px;word-spacing:0px;fill:#000000;fill-opacity:1;stroke:none;stroke-width:0.26458332"
       xml:space="preserve"><tspan
         style="font-style:normal;font-variant:normal;font-weight:normal;font-stretch:normal;font-family:monospace;-inkscape-font-specification:monospace;stroke-width:0.26458332"
         y="241.51312"
         x="-109.61309"
         id="tspan1118"
         sodipodi:role="line"><tspan
   id="tspan1106"
   style="fill:#b380ff">meineVariable</tspan> <tspan
   id="tspan1108"
   style="fill:#6c5353">=</tspan> <tspan
   id="tspan1110"
   style="fill:#006680">input</tspan><tspan
   id="tspan1112"
   style="fill:#808080">(</tspan><tspan
   id="tspan1114"
   style="fill:#2ca05a;fill-opacity:1">&quot;Deine Frage:&quot;</tspan><tspan
   id="tspan1116"
   style="fill:#808080">)</tspan></tspan></text>
    <text
       xml:space="preserve"
       style="font-style:normal;font-weight:normal;font-size:10.58333302px;line-height:1;font-family:sans-serif;letter-spacing:0px;word-spacing:0px;fill:#808080;fill-opacity:1;stroke:none;stroke-width:0.26458332"
       x="-95.282532"
       y="260.69458"
       id="text1138"><tspan
         id="tspan1128"
         sodipodi:role="line"
         x="-95.282532"
         y="260.69458"
         style="font-style:normal;font-variant:normal;font-weight:normal;font-stretch:normal;font-size:7.05555534px;line-height:1;font-family:Ubuntu;-inkscape-font-specification:Ubuntu;fill:#808080;stroke-width:0.26458332"><tspan
   id="tspan1122"
   style="font-style:normal;font-variant:normal;font-weight:bold;font-stretch:normal;font-family:Ubuntu;-inkscape-font-specification:'Ubuntu Bold'">RECHTS</tspan> kann auch ein Befehl/Funktionsaufruf stehen, z.B: <tspan
   id="tspan1126"
   style="fill:#0088aa"><tspan
   id="tspan1124"
   style="fill:#006680">input</tspan> </tspan></tspan><tspan
         sodipodi:role="line"
         x="-95.282532"
         y="271.27792"
         style="font-style:normal;font-variant:normal;font-weight:normal;font-stretch:normal;font-size:7.05555534px;line-height:1;font-family:Ubuntu;-inkscape-font-specification:Ubuntu;fill:#808080;stroke-width:0.26458332"
         id="tspan1134">Der <tspan
   style="font-style:normal;font-variant:normal;font-weight:bold;font-stretch:normal;font-family:Ubuntu;-inkscape-font-specification:'Ubuntu Bold'"
   id="tspan1130">Wert</tspan> der Variablen ist der <tspan
   style="font-style:normal;font-variant:normal;font-weight:bold;font-stretch:normal;font-family:Ubuntu;-inkscape-font-specification:'Ubuntu Bold'"
   id="tspan1132">Rückgabewert</tspan> des Funktionsaufrufs.</tspan><tspan
         sodipodi:role="line"
         x="-95.282532"
         y="281.86124"
         style="font-style:normal;font-variant:normal;font-weight:normal;font-stretch:normal;font-size:7.05555534px;line-height:1;font-family:Ubuntu;-inkscape-font-specification:Ubuntu;fill:#808080;stroke-width:0.26458332"
         id="tspan1136" /></text>
    <path
       inkscape:connector-curvature="0"
       d="m -6.8390939,294.40543 c 2.108439,1.09163 3.6358488,2.39801 5.84829781,3.4524 0.63599144,0.3031 1.36024455,0.56534 2.04036659,0.848 0.8532619,0.2397 1.6594543,0.51798 2.559784,0.7191 3.7674587,0.84159 8.0556765,1.10573 12.1731795,1.31079 4.05373,0.20188 6.959984,0.24585 11.031193,0.34403 7.252186,0.10982 14.517217,0.19766 21.772121,0.0914 3.357603,0.13062 6.693133,-0.58705 10.039009,-0.32311 0.51832,0.0409 1.011832,0.13099 1.517748,0.19649 2.131735,0.47772 4.009808,1.21602 4.784974,2.26707 0.17157,0.23265 0.262071,0.47604 0.393107,0.71406 0.411335,0.6579 0.206757,1.37034 0.683201,2.02151 0.06118,0.0836 0.125024,0.20583 0.315801,0.2221 0.155831,0.0133 0.451109,-0.16907 0.292578,-0.17024 -0.536765,-0.004 -1.04737,0.10722 -1.571053,0.16083 0.806029,-1.08697 0.809624,-2.24422 1.349876,-3.35632 0.171069,-0.22012 0.324927,-0.48693 0.660026,-0.67581 0.157334,-0.0887 0.342314,-0.1724 0.562501,-0.22697 3.519523,-0.87232 3.593177,-0.71809 7.325015,-0.79247 6.161547,0.0287 12.33158,0.0523 18.486137,0.19921 6.09891,0.26485 12.168902,0.64131 18.275762,0.87972 5.45208,0.19548 10.92466,0.21139 16.39049,0.22413 3.7303,-0.0368 7.47752,0.0775 11.19689,-0.0739 2.09337,-0.15544 4.32422,-0.32264 6.20095,-0.80695 0.16576,-0.0428 -0.65642,0.13175 -0.55773,0.0577 0.31928,-0.23956 0.85724,-0.40267 1.28585,-0.60401 2.50133,-1.66509 3.46154,-3.69379 4.10635,-5.65979 0.17034,-0.55209 0.10725,-1.065 -0.25344,-1.59102 0,0 2.02276,-0.50245 2.02276,-0.50245 v 0 c 0.35607,0.54547 0.42894,1.07529 0.24171,1.64539 -0.66143,1.97774 -1.62235,4.0155 -4.04509,5.71507 -0.42033,0.20686 -0.76705,0.4505 -1.26096,0.62059 -2.87413,0.98971 -5.99151,1.55778 -9.55358,1.73417 -3.71251,0.13557 -7.4459,0.0308 -11.16706,0.0524 -5.46553,-0.0217 -10.93973,-0.0298 -16.39045,-0.23412 -6.10602,-0.25172 -12.179914,-0.63315 -18.286812,-0.87194 -6.147522,-0.15485 -12.312097,-0.19976 -18.468041,-0.19213 -0.858396,0.0229 -1.71878,0.0337 -2.575196,0.0687 -0.594421,0.0243 -1.282811,0.2628 -1.774271,0.10909 -0.342037,-0.10697 0.667231,-0.22838 0.946077,-0.36812 0.163337,-0.0819 -0.427484,0.11188 -0.594785,0.19208 -0.356049,0.17067 -0.528379,0.44184 -0.706365,0.64965 -0.582524,1.11363 -0.592964,2.27258 -1.325657,3.37324 -0.776693,0.31297 -1.50306,0.65373 -2.330075,0.9389 -0.489045,0.16862 -0.698331,-0.0635 -0.810949,-0.22853 -0.446934,-0.65483 -0.257919,-1.36199 -0.658907,-2.02157 -0.12888,-0.23198 -0.218983,-0.46913 -0.38665,-0.69594 -0.755339,-1.02175 -2.57537,-1.74305 -4.668966,-2.19213 -0.496726,-0.0598 -0.982609,-0.14284 -1.490176,-0.17927 -3.322262,-0.23848 -6.639538,0.44849 -9.973594,0.31303 -7.215216,0.0917 -14.435699,-0.0194 -21.646096,-0.14275 -3.995439,-0.0977 -7.084096,-0.14945 -11.065241,-0.34228 -4.1742908,-0.20219 -8.5033217,-0.45935 -12.3210165,-1.3142 -0.91274631,-0.20438 -1.72926131,-0.48741 -2.59389185,-0.73111 -0.68885925,-0.2857 -1.42100355,-0.55129 -2.06657795,-0.85711 -2.2232094,-1.05317 -3.7651081,-2.36113 -5.9579355,-3.42442 0,0 1.9988119,-0.54227 1.9988119,-0.54227 z"
       id="path1153"
       style="fill:#ff8080;stroke:none;stroke-width:0.39271313;stroke-miterlimit:4;stroke-dasharray:none" />
  </g>
</svg>
