<?xml version="1.0" encoding="UTF-8" standalone="no"?>
<!-- Created with Inkscape (http://www.inkscape.org/) -->

<svg
   xmlns:dc="http://purl.org/dc/elements/1.1/"
   xmlns:cc="http://creativecommons.org/ns#"
   xmlns:rdf="http://www.w3.org/1999/02/22-rdf-syntax-ns#"
   xmlns:svg="http://www.w3.org/2000/svg"
   xmlns="http://www.w3.org/2000/svg"
   xmlns:sodipodi="http://sodipodi.sourceforge.net/DTD/sodipodi-0.dtd"
   xmlns:inkscape="http://www.inkscape.org/namespaces/inkscape"
   width="42mm"
   height="42mm"
   viewBox="0 0 42 42"
   version="1.1"
   id="svg846"
   inkscape:version="0.92.2 2405546, 2018-03-11"
   sodipodi:docname="gears.svg">
  <defs
     id="defs840" />
  <sodipodi:namedview
     id="base"
     pagecolor="#ffffff"
     bordercolor="#666666"
     borderopacity="1.0"
     inkscape:pageopacity="0.0"
     inkscape:pageshadow="2"
     inkscape:zoom="0.98994949"
     inkscape:cx="-74.372847"
     inkscape:cy="111.41086"
     inkscape:document-units="mm"
     inkscape:current-layer="layer1"
     showgrid="false"
     fit-margin-top="0"
     fit-margin-left="0"
     fit-margin-right="0"
     fit-margin-bottom="0"
     inkscape:window-width="1920"
     inkscape:window-height="996"
     inkscape:window-x="0"
     inkscape:window-y="48"
     inkscape:window-maximized="1" />
  <metadata
     id="metadata843">
    <rdf:RDF>
      <cc:Work
         rdf:about="">
        <dc:format>image/svg+xml</dc:format>
        <dc:type
           rdf:resource="http://purl.org/dc/dcmitype/StillImage" />
        <dc:title></dc:title>
      </cc:Work>
    </rdf:RDF>
  </metadata>
  <g
     inkscape:label="Ebene 1"
     inkscape:groupmode="layer"
     id="layer1"
     transform="translate(-89.872242,-176.40718)">
    <g
       id="g3077"
       transform="matrix(0.27595644,0,0,0.27595644,77.51627,-31.564759)">
      <g
         id="g3073">
        <path
           id="path7760-8"
           style="fill:#ffffff;fill-rule:evenodd;stroke:#000000;stroke-width:1.61629999;stroke-linecap:round;stroke-linejoin:round"
           d="m 108.66,765.69 -12.265,11.628 c -1.5797,-0.0313 -3.1709,0.0828 -4.686,0.34712 l -11.025,-11.57 -15.182,11.281 4.5703,17.818 -15.967,-0.23141 -2.0827,20.364 17.529,5.3224 -4.6282,16.661 13.248,10.355 13.105,-10.159 3.8458,0.43958 8.4464,11.744 20.017,-8.6778 -1.5042,-15.331 c 0.89005,-1.0249 1.7024,-2.1013 2.4298,-3.2397 l 14.058,-1.562 0.58678,-22.975 -13.43,-3.1736 c -0.7262,-1.4095 -1.584,-2.7748 -2.5455,-4.0496 l 3.8182,-15.678 -18.339,-9.3142 z"
           inkscape:export-ydpi="300"
           sodipodi:nodetypes="ccccccccccccccccccccccc"
           inkscape:export-filename="/Volumes/LOUIS/Arborescence /isotype/action.png"
           inkscape:connector-curvature="0"
           inkscape:export-xdpi="300" />
        <path
           id="path7762-9"
           style="fill:#ffffff;stroke:#000000;stroke-width:0.80814999;stroke-linecap:round;stroke-linejoin:round"
           d="m 119.45,807.9 c 1.1159,20.144 -30.168,30.025 -40.697,12.628 -11.647,-14.502 3.9235,-39.069 22.031,-33.918 10.023,1.681 19.46,10.561 18.666,21.289 z"
           inkscape:export-ydpi="300"
           inkscape:export-filename="/Volumes/LOUIS/Arborescence /isotype/action.png"
           inkscape:connector-curvature="0"
           inkscape:export-xdpi="300" />
      </g>
      <g
         id="g3069"
         transform="matrix(0.80234,-0.0012437,0.0012437,0.80234,24.722,165.66)">
        <path
           id="path3065"
           style="fill:#ffffff;fill-rule:evenodd;stroke:#000000;stroke-width:2.0144999;stroke-linecap:round;stroke-linejoin:round"
           d="m 173.83,823.77 -12.265,11.628 c -1.5797,-0.0313 -3.1709,0.0828 -4.686,0.34712 l -11.025,-11.57 -15.182,11.281 4.5703,17.818 -15.967,-0.23141 -2.0827,20.364 17.529,5.3224 -4.6282,16.661 13.248,10.355 13.105,-10.159 3.8458,0.43958 8.4464,11.744 20.017,-8.6778 -1.5042,-15.331 c 0.89005,-1.0249 1.7024,-2.1013 2.4298,-3.2397 l 14.058,-1.562 0.58678,-22.975 -13.43,-3.1736 c -0.7262,-1.4095 -1.584,-2.7748 -2.5455,-4.0496 l 3.8182,-15.678 -18.339,-9.3142 z"
           inkscape:export-ydpi="300"
           sodipodi:nodetypes="ccccccccccccccccccccccc"
           inkscape:export-filename="/Volumes/LOUIS/Arborescence /isotype/action.png"
           inkscape:connector-curvature="0"
           inkscape:export-xdpi="300" />
        <path
           id="path3067"
           style="fill:#ffffff;stroke:#000000;stroke-width:1.0072;stroke-linecap:round;stroke-linejoin:round"
           d="m 184.61,865.98 c 1.1159,20.144 -30.168,30.025 -40.697,12.628 -11.647,-14.502 3.9235,-39.069 22.031,-33.918 10.023,1.681 19.46,10.561 18.666,21.289 z"
           inkscape:export-ydpi="300"
           inkscape:export-filename="/Volumes/LOUIS/Arborescence /isotype/action.png"
           inkscape:connector-curvature="0"
           inkscape:export-xdpi="300" />
      </g>
    </g>
  </g>
</svg>
