<?xml version="1.0" encoding="UTF-8" standalone="no"?>
<!-- Generator: Adobe Illustrator 18.0.0, SVG Export Plug-In . SVG Version: 6.00 Build 0)  -->

<svg
   xmlns:dc="http://purl.org/dc/elements/1.1/"
   xmlns:cc="http://creativecommons.org/ns#"
   xmlns:rdf="http://www.w3.org/1999/02/22-rdf-syntax-ns#"
   xmlns:svg="http://www.w3.org/2000/svg"
   xmlns="http://www.w3.org/2000/svg"
   xmlns:sodipodi="http://sodipodi.sourceforge.net/DTD/sodipodi-0.dtd"
   xmlns:inkscape="http://www.inkscape.org/namespaces/inkscape"
   version="1.1"
   id="Capa_1"
   x="0px"
   y="0px"
   viewBox="0 0 90.708665 90.708665"
   xml:space="preserve"
   sodipodi:docname="python_master.svg"
   inkscape:version="0.92.2 2405546, 2018-03-11"
   width="24mm"
   height="24mm"><metadata
     id="metadata69"><rdf:RDF><cc:Work
         rdf:about=""><dc:format>image/svg+xml</dc:format><dc:type
           rdf:resource="http://purl.org/dc/dcmitype/StillImage" /><dc:title></dc:title></cc:Work></rdf:RDF></metadata><defs
     id="defs67"><filter
       height="1.0472056"
       y="-0.023602823"
       width="1.0488214"
       x="-0.024410775"
       id="filter863"
       style="color-interpolation-filters:sRGB"
       inkscape:collect="always"><feGaussianBlur
         id="feGaussianBlur865"
         stdDeviation="0.55138074"
         inkscape:collect="always" /></filter><filter
       height="1.1039521"
       y="-0.051976044"
       width="1.0312043"
       x="-0.015602157"
       id="filter895"
       style="color-interpolation-filters:sRGB"
       inkscape:collect="always"><feGaussianBlur
         id="feGaussianBlur897"
         stdDeviation="0.60553148"
         inkscape:collect="always" /></filter><filter
       height="1.1087214"
       y="-0.054360684"
       width="1.0307988"
       x="-0.015399378"
       id="filter931"
       style="color-interpolation-filters:sRGB"
       inkscape:collect="always"><feGaussianBlur
         id="feGaussianBlur933"
         stdDeviation="0.71704602"
         inkscape:collect="always" /></filter><filter
       height="1.0430132"
       y="-0.021506604"
       width="1.0542947"
       x="-0.027147368"
       id="filter951"
       style="color-interpolation-filters:sRGB"
       inkscape:collect="always"><feGaussianBlur
         id="feGaussianBlur953"
         stdDeviation="0.35078092"
         inkscape:collect="always" /></filter><filter
       height="1.0177044"
       y="-0.0088522239"
       width="1.0372435"
       x="-0.01862173"
       id="filter959"
       style="color-interpolation-filters:sRGB"
       inkscape:collect="always"><feGaussianBlur
         id="feGaussianBlur961"
         stdDeviation="0.20770662"
         inkscape:collect="always" /></filter><clipPath
       clipPathUnits="userSpaceOnUse"
       id="clipPath989"><circle
         style="opacity:1;fill:none;fill-opacity:1;fill-rule:nonzero;stroke:#000000;stroke-width:3.55354023;stroke-miterlimit:4;stroke-dasharray:none;stroke-dashoffset:0;stroke-opacity:1"
         id="circle991"
         cx="599.89819"
         cy="311.72101"
         r="251.60049" /></clipPath></defs><sodipodi:namedview
     pagecolor="#ffffff"
     bordercolor="#666666"
     borderopacity="1"
     objecttolerance="10"
     gridtolerance="10"
     guidetolerance="10"
     inkscape:pageopacity="0"
     inkscape:pageshadow="2"
     inkscape:window-width="1920"
     inkscape:window-height="996"
     id="namedview65"
     showgrid="false"
     inkscape:zoom="13.57645"
     inkscape:cx="34.472874"
     inkscape:cy="38.722814"
     inkscape:window-x="0"
     inkscape:window-y="48"
     inkscape:window-maximized="1"
     inkscape:current-layer="Capa_1"
     fit-margin-top="2"
     fit-margin-left="2"
     fit-margin-right="2"
     fit-margin-bottom="2"
     units="mm" /><path
     style="opacity:0.1;fill:none;stroke:#333333;stroke-width:2.79683685;filter:url(#filter959)"
     d="m 65.270272,124.99079 c -7.913058,1.1048 -11.371479,10.32222 -9.195621,17.32627 1.843148,10.59016 1.10826,21.78092 4.190795,32.09156 3.15328,7.99585 15.359658,9.2779 19.813218,1.7717 4.873727,-7.99183 -0.192982,-17.71687 0.07849,-26.30498 -1.477417,-7.88639 0.638299,-19.51164 -8.175351,-23.85058 -2.055378,-1.03674 -4.437789,-1.40304 -6.71153,-1.03397 z"
     id="rect955"
     inkscape:connector-curvature="0"
     transform="matrix(0.57277937,0,0,0.57277937,-2.1493253,-49.764764)" /><path
     style="color:#000000;font-weight:400;line-height:normal;font-family:sans-serif;font-variant-ligatures:normal;font-variant-position:normal;font-variant-caps:normal;font-variant-numeric:normal;font-variant-alternates:normal;font-feature-settings:normal;text-indent:0;text-align:start;text-decoration:none;text-decoration-line:none;text-decoration-style:solid;text-decoration-color:#000000;text-transform:none;text-orientation:mixed;white-space:normal;shape-padding:0;overflow:visible;opacity:0.1;isolation:auto;mix-blend-mode:normal;fill:#333333;filter:url(#filter931)"
     d="m 41.958984,182.57031 c -11.400551,0.0291 -18.948718,14.27652 -12.568359,23.72657 4.389565,7.87969 14.435117,8.20666 22.320313,7.46874 24.890956,-0.25347 49.849942,0.48403 74.703122,-0.32617 11.16324,-1.81864 16.42839,-16.87558 8.81641,-25.24804 -7.02758,-8.73321 -19.48617,-4.80335 -29.00977,-5.63868 -21.420485,0.0122 -42.8416,-0.024 -64.261716,0.0176 z m 0.751954,6.62696 c 27.709243,0.26287 55.519069,-0.52422 83.166012,0.39062 9.39064,2.2792 7.5325,17.06948 -1.71679,17.48438 -28.020349,-0.15032 -56.149143,0.54328 -84.109379,-0.34375 -9.695411,-2.86415 -7.505262,-17.66982 2.660157,-17.53125 z"
     id="path899"
     inkscape:connector-curvature="0"
     transform="matrix(0.57277937,0,0,0.57277937,-2.1493253,-49.764764)" /><path
     style="color:#000000;font-weight:400;line-height:normal;font-family:sans-serif;font-variant-ligatures:normal;font-variant-position:normal;font-variant-caps:normal;font-variant-numeric:normal;font-variant-alternates:normal;font-feature-settings:normal;text-indent:0;text-align:start;text-decoration:none;text-decoration-line:none;text-decoration-style:solid;text-decoration-color:#000000;text-transform:none;text-orientation:mixed;white-space:normal;shape-padding:0;overflow:visible;opacity:0.1;isolation:auto;mix-blend-mode:normal;fill:#333333;filter:url(#filter895)"
     d="m 49.089844,162.11133 c -9.987661,-0.25972 -16.48532,12.57616 -10.34375,20.46484 5.871173,8.47269 17.652777,4.86263 26.206425,6.0424 18.132577,0.22414 36.341301,1.85141 54.436151,1.35604 9.8132,-1.71088 13.68286,-15.49895 6.17188,-22.05273 -7.16692,-6.53108 -17.93606,-2.72347 -26.582329,-4.21081 -16.62954,-0.52597 -33.258424,-1.1062 -49.888377,-1.59974 z m 0.560547,6.70117 c 22.975971,0.95202 46.05761,1.09466 68.972659,2.51562 6.73494,1.90058 4.65121,12.97768 -2.33399,12.25586 -22.984351,-0.95917 -46.079152,-1.08537 -68.999998,-2.52539 -6.596753,-2.02375 -4.869128,-12.82784 2.361329,-12.24609 z"
     id="path1071"
     inkscape:connector-curvature="0"
     transform="matrix(0.57277937,0,0,0.57277937,-2.1493253,-49.764764)" /><path
     style="color:#000000;font-weight:400;line-height:normal;font-family:sans-serif;font-variant-ligatures:normal;font-variant-position:normal;font-variant-caps:normal;font-variant-numeric:normal;font-variant-alternates:normal;font-feature-settings:normal;text-indent:0;text-align:start;text-decoration:none;text-decoration-line:none;text-decoration-style:solid;text-decoration-color:#000000;text-transform:none;text-orientation:mixed;white-space:normal;shape-padding:0;overflow:visible;opacity:0.1;isolation:auto;mix-blend-mode:normal;fill:#333333;stroke-width:1.20513022;filter:url(#filter863)"
     d="m 71.273438,103.39453 c -12.57192,0.59436 -26.564993,5.54008 -33.216797,16.87695 -3.609245,6.49947 3.021946,12.89969 5.855468,18.29688 6.849248,9.26056 15.511756,20.63621 28.152344,20.87695 11.556677,-0.88729 16.515461,-13.5665 17.925781,-23.48242 1.084415,-8.72328 2.114646,-18.23064 -0.01172,-26.66016 -4.743535,-5.0237 -12.131866,-6.06774 -18.705078,-5.9082 z m 1.037109,7.17188 c 3.677507,0.23945 9.888276,0.0575 11.363281,3.75195 0.305584,11.92432 1.053723,26.14522 -7.24414,35.83789 -6.97143,5.72022 -15.072568,-2.14011 -19.820313,-7.11523 -4.832968,-5.73678 -10.273443,-12.03599 -12.263672,-19.21094 5.471928,-9.24263 17.793387,-12.9717 27.964844,-13.26367 z"
     id="path1107"
     inkscape:connector-curvature="0"
     transform="matrix(0.57277937,0,0,0.57277937,-2.1493253,-49.764764)" /><path
     style="color:#000000;font-weight:400;line-height:normal;font-family:sans-serif;font-variant-ligatures:normal;font-variant-position:normal;font-variant-caps:normal;font-variant-numeric:normal;font-variant-alternates:normal;font-feature-settings:normal;text-indent:0;text-align:start;text-decoration:none;text-decoration-line:none;text-decoration-style:solid;text-decoration-color:#000000;text-transform:none;text-orientation:mixed;white-space:normal;shape-padding:0;overflow:visible;opacity:0.1;isolation:auto;mix-blend-mode:normal;fill:#333333;filter:url(#filter951)"
     d="m 103.64648,189.60742 c -8.503337,0.69816 -10.008475,11.22634 -10.058589,18.0293 -0.187965,7.1196 7.509789,10.84976 12.318359,14.72461 5.02381,2.6445 10.73275,8.12444 16.75977,5.85156 4.87219,-3.79589 -0.78196,-10.02017 -2.75196,-13.79101 -4.18295,-6.51356 -3.3745,-15.32574 -9.10742,-21.11329 -1.80742,-2.06011 -4.33667,-3.70768 -7.16016,-3.70117 z m 0.0449,6.64649 c 7.51301,4.29235 5.32722,14.73816 10.18263,21.00771 3.41675,4.31773 0.42726,2.67746 -2.37013,0.80283 -4.8839,-3.6042 -13.332531,-7.30192 -10.97266,-14.5664 0.51506,-2.21132 0.69422,-6.32272 3.16016,-7.24414 z"
     id="path935"
     inkscape:connector-curvature="0"
     transform="matrix(-0.57277937,0,0,0.57277937,122.81984,-49.764764)" /><rect
     width="10.954318"
     height="30.131018"
     x="27.508606"
     y="26.688"
     ry="5.8588967"
     transform="matrix(0.99400281,-0.10935452,0.10803613,0.99414697,0,0)"
     id="rect1065"
     style="fill:#ffd42a;stroke:#333333;stroke-width:1.60197043" /><rect
     style="fill:#ffd42a;stroke:#333333;stroke-width:1.54650438"
     id="rect1067"
     width="49.546562"
     height="11.054642"
     x="22.234272"
     y="44.131947"
     ry="5.5273209"
     transform="rotate(1.859)" /><path
     style="fill:#005522;stroke-width:0.57277936"
     inkscape:connector-curvature="0"
     id="path1069"
     d="m 62.517471,47.144797 c -0.05155,1.587481 -2.276706,2.80297 -4.969073,2.715582 -2.692933,-0.0874 -4.834613,-1.44463 -4.783088,-3.032111 0.05153,-1.587481 2.552342,-1.001425 5.245275,-0.914024 2.69294,0.08741 4.558414,-0.356928 4.506886,1.230553 z m -28.104053,7.8445 c 0.05153,-1.587481 3.099931,-2.77625 6.808442,-2.655881 3.709085,0.120381 6.673415,1.504308 6.62189,3.091789 -0.05153,1.587481 -3.501509,0.97062 -7.210593,0.850239 -3.708512,-0.120369 -6.271264,0.301334 -6.219739,-1.286147 z m -7.550606,-7.160435 c -0.04181,1.288072 -1.398455,1.822853 -2.409137,2.257111 -1.250721,0.53764 -4.118478,1.528262 -4.076671,0.240184 0.04185,-1.289223 2.939476,-4.948281 4.228124,-4.906451 a 2.3346487,2.3346487 0 0 1 2.257684,2.409156 z" /><circle
     style="fill:#008033;stroke-width:0.57277936"
     id="circle1073"
     r="1.1862261"
     cy="48.284595"
     cx="48.108433"
     transform="rotate(1.859)" /><path
     style="fill:#ffd42a;stroke:#333333;stroke-width:1.51557422"
     inkscape:connector-curvature="0"
     d="m 67.346403,69.798347 c 0,2.698937 -10.615892,9.634149 -13.314829,9.634149 -2.698364,0 3.650896,-6.936358 3.572425,-9.634149 2.083771,-11.145141 9.742404,-12.978035 9.742404,0 z"
     id="path1077" /><circle
     style="fill:#008033;stroke-width:0.57277936"
     r="1.1862261"
     cy="75.1567"
     cx="60.442009"
     id="circle1079" /><path
     inkscape:connector-curvature="0"
     style="color:#000000;font-weight:400;line-height:normal;font-family:sans-serif;font-variant-ligatures:normal;font-variant-position:normal;font-variant-caps:normal;font-variant-numeric:normal;font-variant-alternates:normal;font-feature-settings:normal;text-indent:0;text-align:start;text-decoration:none;text-decoration-line:none;text-decoration-style:solid;text-decoration-color:#000000;text-transform:none;text-orientation:mixed;white-space:normal;shape-padding:0;overflow:visible;isolation:auto;mix-blend-mode:normal;fill:#333333;stroke-width:0.57277936"
     d="m 63.176874,59.998665 c 1.429084,-0.150641 2.779698,0.765806 3.615956,2.414265 0.836258,1.647886 1.311092,4.066734 1.311092,7.385417 0,1.171334 -0.837977,2.103246 -1.924539,3.18179 -1.08599,1.07797 -2.524811,2.216656 -4.047259,3.27057 -1.522448,1.054487 -3.125084,2.020765 -4.540995,2.733303 -1.414765,0.71311 -2.560324,1.206273 -3.559251,1.206273 -0.250304,0 -0.501182,-0.03666 -0.745186,-0.160378 -0.244004,-0.123147 -0.460514,-0.352259 -0.567051,-0.597982 -0.21422,-0.49259 -0.112265,-0.925611 0.0189,-1.349468 0.262333,-0.847713 0.82022,-1.799672 1.446268,-2.844995 0.626048,-1.045322 1.323121,-2.15766 1.84435,-3.149141 0.522375,-0.990908 0.827666,-1.899336 0.817356,-2.267633 l -0.0023,-0.08133 0.01546,-0.07962 c 0.535549,-2.865043 1.427939,-5.157306 2.512783,-6.804619 1.084271,-1.648459 2.375889,-2.70581 3.804401,-2.856451 z m 0.159232,1.50641 c -0.746331,0.07904 -1.759578,0.757787 -2.697791,2.182862 -0.937067,1.425075 -1.783635,3.54264 -2.289399,6.250168 l 0.01317,-0.162096 c 0.02864,0.980598 -0.430157,1.951459 -0.992054,3.019693 -0.562469,1.06766 -1.269852,2.194317 -1.884444,3.220738 -0.614019,1.025275 -1.132957,1.977234 -1.299636,2.514502 -0.02749,0.08878 -0.0189,0.04239 -0.02578,0.09737 0.405527,-0.0315 1.475479,-0.355696 2.749341,-0.997782 1.334576,-0.67187 2.89139,-1.608364 4.359996,-2.62562 1.469179,-1.017256 2.853014,-2.119284 3.841631,-3.099882 0.988618,-0.981171 1.477771,-1.928548 1.477771,-2.106683 0,-3.169761 -0.482853,-5.389854 -1.14785,-6.6998 -0.664424,-1.309946 -1.358632,-1.671943 -2.104964,-1.592899 z"
     font-weight="400"
     overflow="visible"
     id="path1081" /><rect
     style="fill:#ffd42a;stroke:#333333;stroke-width:1.51557422"
     width="60.18594"
     height="14.072044"
     x="15.278632"
     y="56.7006"
     ry="7.0360222"
     id="rect1083" /><path
     style="fill:#005522;stroke-width:0.57277936"
     inkscape:connector-curvature="0"
     d="m 18.63111,70.186692 c 0,-2.696073 7.884308,-4.881226 12.293564,-4.881226 4.409255,0 14.989636,4.858314 12.293563,4.881226 l -12.7031,0.107109 z m 55.437597,-9.80541 c 0,2.306009 -3.453287,4.37317 -5.906501,4.391499 -4.294127,0.03208 -10.453223,-5.224893 -10.453223,-7.53033 0,-2.30601 7.549232,-0.819075 10.453223,-0.819075 2.903419,0 5.906501,1.652469 5.906501,3.957906 z"
     id="path1085" /><path
     inkscape:connector-curvature="0"
     style="color:#000000;font-weight:400;line-height:normal;font-family:sans-serif;font-variant-ligatures:normal;font-variant-position:normal;font-variant-caps:normal;font-variant-numeric:normal;font-variant-alternates:normal;font-feature-settings:normal;text-indent:0;text-align:start;text-decoration:none;text-decoration-line:none;text-decoration-style:solid;text-decoration-color:#000000;text-transform:none;text-orientation:mixed;white-space:normal;shape-padding:0;overflow:visible;isolation:auto;mix-blend-mode:normal;fill:#333333;stroke-width:0.57277936"
     d="m 22.314082,55.943387 c -4.304437,0 -7.793237,3.489372 -7.793237,7.793809 0,4.30501 3.4888,7.793236 7.793809,7.793236 h 46.114467 c 4.304437,0 7.793809,-3.488226 7.793809,-7.793236 0,-4.304437 -3.489372,-7.793809 -7.793809,-7.793809 z m 0,1.514429 h 46.114467 a 6.2490229,6.2490229 0 0 1 6.278807,6.27938 c 0,3.491663 -2.787144,6.278235 -6.278235,6.278235 H 22.314082 a 6.2478774,6.2478774 0 0 1 -6.278235,-6.277662 6.2490229,6.2490229 0 0 1 6.277662,-6.279953 z"
     font-weight="400"
     overflow="visible"
     id="path1087" /><circle
     style="fill:#008033;stroke-width:0.57277936"
     cx="25.905409"
     cy="60.110359"
     r="1.1862261"
     id="circle1089" /><circle
     style="fill:#008033;stroke-width:0.57277936"
     r="2.268779"
     cy="64.331741"
     cx="46.797535"
     id="circle1091" /><path
     style="fill:#ffcc00;stroke:#333333;stroke-width:1.82646418"
     inkscape:connector-curvature="0"
     id="path1095"
     d="m 32.962131,12.352414 c 4.443244,-1.190562 11.495257,-1.531555 14.747902,1.720996 0.619326,5.183728 0.96081,22.974977 -7.521624,25.24784 -8.482435,2.272863 -19.539785,-16.089424 -19.137837,-18.104457 1.190598,-4.443118 7.468316,-7.673817 11.911559,-8.864379 z" /><circle
     style="fill:#005522;stroke-width:0.6902737"
     id="circle1097"
     r="2.8135557"
     cy="23.255592"
     cx="25.972645"
     transform="rotate(-14.999999)" /><circle
     style="fill:#008033;stroke-width:0.6902737"
     id="circle1099"
     r="1.429557"
     cy="26.059484"
     cx="37.273804"
     transform="rotate(-14.999999)" /><circle
     style="fill:#00aa44;stroke-width:0.6902737"
     id="circle1101"
     r="1.4758052"
     cy="23.176207"
     cx="21.048233"
     transform="rotate(-14.999999)" /><circle
     style="fill:#241f1c;stroke-width:0.6902737"
     id="circle1111"
     cx="34.810219"
     cy="31.094343"
     r="2.1336362"
     transform="rotate(-14.999999)" /><circle
     style="fill:#241f1c;stroke-width:0.6902737"
     id="circle1113"
     r="2.1336362"
     cy="31.094343"
     cx="22.417048"
     transform="rotate(-14.999999)" /><circle
     style="fill:#483737;stroke-width:0.6902737"
     id="circle1115"
     r="1.4882301"
     cy="31.094343"
     cx="34.810219"
     transform="rotate(-14.999999)" /><circle
     style="fill:#483737;stroke-width:0.6902737"
     id="circle1117"
     cx="22.417048"
     cy="31.094343"
     r="1.4882301"
     transform="rotate(-14.999999)" /><path
     style="display:none;fill:#ffffff;stroke-width:0.08152823"
     inkscape:connector-curvature="0"
     id="path2"
     d="m 3.7429121,58.848097 c 0,-25.358799 0,-50.7177664 0,-76.076565 23.6135379,0 47.2271539,0 70.8406119,0 0,25.3588831 0,50.717766 0,76.076565 -23.613458,0 -47.226996,0 -70.8406119,0 z M 43.838722,15.044684 c 0.01691,0.01167 0.03381,0.02316 0.05056,0.03491 0.09373,-0.122399 0.190686,-0.242262 0.281036,-0.367703 0.710296,-0.985785 1.558986,-1.758977 2.719773,-2.05669 1.249642,-0.320537 2.490714,0.312675 2.878848,1.486706 0.252885,0.764148 0.324835,1.549597 0.194932,2.356263 -0.04419,0.274552 -0.03594,0.558826 -0.05158,0.838703 1.897188,-1.228976 3.292774,-2.828023 3.595198,-5.212518 0.269005,-2.120087 -0.581336,-3.8800785 -1.776329,-5.5662752 0.441134,-2.108422 -0.08665,-3.9630017 -1.680474,-5.4533432 -0.08956,-0.083684 -0.12141,-0.25722362 -0.14846,-0.39610577 -0.08901,-0.45645989 -0.143978,-0.92120369 -0.247538,-1.37335257 -0.15365,-0.66955906 -0.530776,-1.19930606 -0.997937,-1.62888556 0.26641,-0.5139401 0.537617,-0.9751336 0.753465,-1.4646446 0.775955,-1.7602446 1.164011,-3.5683329 0.61971,-5.5131902 -0.603747,-2.1571109 -2.617392,-4.0503209 -4.700705,-4.2525999 -1.90403,-0.184867 -3.577271,0.376326 -4.793808,2.070891 -0.734672,1.023231 -1.091354,2.2359769 -1.390475,3.4625015 -0.165602,0.6791109 -0.356838,1.3754659 -0.06377,2.0824715 0.02375,0.056973 -0.01801,0.1612825 -0.05394,0.22823 -0.214355,0.3995714 -0.599895,0.4970341 -0.968921,0.6274633 -0.731055,0.258407 -1.35108,0.678012 -1.667186,1.4692091 -0.09074,0.2272156 -0.196741,0.2901056 -0.415342,0.2996575 -1.090252,0.047675 -1.903558,0.5935669 -2.41727,1.6320977 -0.303682,0.6137695 -0.449862,1.27791863 -0.471958,1.96979349 -0.0067,0.21022514 -0.06629,0.28883768 -0.267117,0.2891758 -0.270342,4.2265e-4 -0.543357,0.0191882 -0.810475,0.0633127 -0.946904,0.1564643 -1.80676,0.48156521 -2.338086,1.43328401 -0.05355,0.095941 -0.175588,0.1759907 -0.280092,0.2063368 -0.896107,0.2601822 -1.401877,0.9601719 -1.613479,1.8517056 -0.357468,1.5063177 -0.661858,3.0311473 -0.901139,4.5640073 -0.08925,0.5714201 -0.313276,0.9766551 -0.703927,1.2875547 -0.356052,0.283513 -0.764081,0.49154 -1.150643,0.730336 -0.07557,0.04666 -0.157581,0.08115 -0.297706,0.152322 0.557747,0.337443 1.098116,0.495429 1.664748,0.527381 0.266489,0.01505 0.335372,0.11944 0.333957,0.390865 -0.0068,1.335821 0.139259,2.655075 0.416757,3.957 0.06873,0.32248 0.154986,0.640734 0.233148,0.960932 0.03381,-0.0031 0.0677,-0.0063 0.101516,-0.0095 0.02532,-0.130514 0.05551,-0.260182 0.07533,-0.391626 0.249426,-1.658893 0.654781,-3.267576 1.349822,-4.780234 1.119582,-2.4367347 2.790307,-4.0581817 5.419258,-4.3562331 2.275808,-0.2580689 4.548943,-0.5115732 6.841422,-0.4352429 0.79923,0.026627 1.561659,0.2236653 2.27109,0.6315207 0.971437,0.5584871 1.545304,1.4218725 1.43679,2.6131483 -0.102853,1.126864 -0.340876,2.24181 -0.558848,3.353036 -0.112446,0.572435 -0.31068,1.125512 -0.470149,1.687296 z m 2.739038,28.516993 c -0.485955,0.03178 -0.661622,-0.09138 -0.896421,-0.528563 -0.483124,-0.898888 -0.464094,-1.838266 -0.101358,-2.742986 0.451591,-1.126019 0.993454,-2.210196 1.493327,-3.314153 0.74804,-1.65137 1.228647,-3.369434 1.12894,-5.233397 -0.02445,-0.455868 0.138945,-0.808103 0.519452,-1.042757 0.832649,-0.513686 1.279523,-1.368112 1.616703,-2.275368 0.169298,-0.455953 0.240383,-0.982065 0.238338,-1.476056 -0.0021,-0.592384 -0.102931,-1.204463 -0.590851,-1.604964 -0.766519,-0.629407 -1.868566,-0.378608 -2.284065,0.918245 -0.04097,0.12764 -0.0063,0.283175 -0.0068,0.425691 0.130689,-0.02561 0.272386,-0.0251 0.390101,-0.08191 0.277104,-0.13381 0.403704,-0.08047 0.477462,0.238796 0.103245,0.44657 -0.103167,0.908102 -0.518116,1.136501 -0.544929,0.299996 -1.112348,0.2803 -1.686923,0.120624 -1.108259,-0.308195 -2.028427,-0.994322 -2.949067,-1.684506 -0.531012,-0.39805 -1.069179,-0.787478 -1.623466,-1.146306 -0.585819,-0.378947 -1.229433,-0.459081 -1.872576,-0.203886 -0.547446,0.217072 -1.070122,0.218678 -1.6123,0.0018 -0.195011,-0.07802 -0.41196,-0.109381 -0.62144,-0.12654 -0.769506,-0.06306 -1.382611,0.3486 -1.980461,0.788407 -1.174783,0.864315 -2.281549,1.852213 -3.666676,2.333017 -0.624586,0.21665 -1.248463,0.235246 -1.853783,-0.07354 -0.390494,-0.199152 -0.582595,-0.539299 -0.552243,-1.011144 0.02744,-0.42662 0.208064,-0.529916 0.55295,-0.330257 0.08477,0.04903 0.221196,0.108874 0.277734,0.06982 0.06377,-0.04404 0.0931,-0.19594 0.08713,-0.297629 -0.03232,-0.556627 -0.613812,-1.236076 -1.145846,-1.357968 -0.624035,-0.143024 -1.195935,0.130175 -1.508818,0.705484 -0.201695,0.370916 -0.156716,0.768797 -0.18471,1.172848 -0.07509,1.083247 0.274667,1.989827 0.876763,2.808243 0.246358,0.334906 0.529596,0.643101 0.822899,0.931939 0.510802,0.502867 0.622383,0.914526 0.394975,1.612909 -0.234013,0.718502 -0.27789,1.462616 -0.22324,2.212817 0.125813,1.725841 0.577798,3.357178 1.269458,4.914805 0.280879,0.632535 0.353929,1.298459 0.36368,1.992954 0.01502,1.07471 0.04175,2.152547 0.140439,3.220917 0.04128,0.44733 0.222768,0.910468 0.44192,1.300488 0.295976,0.526788 0.92292,0.64048 1.283612,0.304222 0.08713,-0.08123 0.121488,-0.227808 0.180149,-0.344374 -0.09688,-0.04784 -0.189979,-0.122906 -0.291258,-0.139136 -0.390887,-0.0623 -0.564431,-0.246404 -0.583618,-0.670573 -0.02964,-0.653921 0.224184,-1.185443 0.662644,-1.610458 0.115984,-0.11234 0.310445,-0.131106 0.468891,-0.192812 0.04396,0.172187 0.12487,0.344035 0.12605,0.516476 0.01038,1.561853 0.157581,3.082456 0.963967,4.448624 0.108986,0.184697 0.139181,0.455868 0.12369,0.680379 -0.0098,0.143024 -0.149797,0.3486 -0.270656,0.388498 -0.110401,0.0366 -0.276082,-0.107184 -0.412668,-0.181401 -0.05599,-0.03052 -0.09947,-0.08757 -0.1899,-0.170496 -0.100494,0.45739 -0.05748,0.837097 0.228115,1.126019 0.364309,0.368634 0.81252,0.363562 1.26246,0.208281 0.381923,-0.131866 0.581809,-0.448683 0.591009,-0.857046 0.0072,-0.322649 -0.02815,-0.664656 -0.125499,-0.968117 -0.255166,-0.797115 -0.0079,-1.496005 0.302896,-2.189571 0.04466,-0.09974 0.153885,-0.165931 0.299986,-0.316563 0.03145,0.212338 0.06385,0.327468 0.06299,0.442259 -0.0043,0.557642 -0.01014,1.115368 -0.02878,1.672503 -0.03853,1.153237 0.161827,2.215774 0.948083,3.07637 0.15593,0.17075 0.294482,0.364069 0.419037,0.562714 0.328216,0.524083 0.696378,1.029655 0.952408,1.593045 0.341584,0.751806 0.02721,1.194741 -0.73766,1.146644 -0.02013,-0.0013 -0.04136,0.01936 -0.06181,0.03035 0.09475,0.589087 0.581652,0.927544 1.124537,0.702779 0.303997,-0.125611 0.617036,-0.349022 0.812598,-0.621969 0.214119,-0.298896 0.297549,-0.705991 0.437831,-1.06558 0.232283,0.236176 0.495862,0.504219 0.759363,0.772432 0.02752,-0.0164 0.05489,-0.03288 0.08249,-0.0492 -0.186125,-1.336245 0.144057,-2.55178 0.66343,-3.742549 0.32279,-0.740226 0.557354,-1.524914 0.834065,-2.288639 0.0151,-0.04201 0.05386,-0.0743 0.114018,-0.154182 0.337338,1.030923 -0.146101,1.944265 -0.217657,2.902155 1.784428,-1.799466 2.6457,-3.996983 2.572414,-6.612667 0.86882,0.210563 1.414694,-0.08098 1.429634,-0.77277 z"
     display="none" /><path
     style="display:none;fill:#ffffff;stroke-width:0.08152823"
     inkscape:connector-curvature="0"
     id="path8"
     d="m 39.681845,34.761722 c 0.04726,-0.283935 0.07769,-0.479874 0.112603,-0.674884 0.114569,-0.642002 0.232519,-1.283413 0.344178,-1.925923 0.01927,-0.110903 0.02618,-0.227469 0.01801,-0.339809 -0.021,-0.280807 -0.126128,-0.427466 -0.416522,-0.297967 -0.381136,0.170158 -0.767462,0.220623 -1.168021,0.04767 -0.409994,-0.177005 -0.58173,-0.03381 -0.513869,0.435581 0.09208,0.637945 0.207042,1.272171 0.313905,1.90758 0.04309,0.256378 0.0909,0.51208 0.151369,0.851213 -0.878886,-0.241078 -1.793786,-0.197715 -2.237357,-1.212746 -0.132261,-0.302616 -0.360377,-0.431524 -0.680257,-0.450036 -0.163086,-0.0094 -0.38782,-0.10862 -0.466532,-0.245643 -0.282137,-0.491202 -0.519217,-1.012749 -0.762037,-1.529056 -0.103167,-0.21927 -0.0057,-0.328229 0.208929,-0.350798 1.0334,-0.108705 1.847335,-0.711739 2.631939,-1.370309 0.276947,-0.232541 0.525272,-0.504304 0.794119,-0.748679 0.435079,-0.395852 0.732706,-0.885363 0.907587,-1.466758 0.03413,-0.113354 0.09719,-0.216565 0.180228,-0.397036 0.09137,0.191967 0.16513,0.304983 0.201773,0.430763 0.202403,0.694157 0.594941,1.219171 1.155912,1.625674 0.641884,0.46542 1.2417,1.000915 1.899626,1.436242 0.358725,0.237529 0.791917,0.365845 1.207023,0.476747 0.256738,0.06838 0.367375,0.141503 0.249975,0.417577 -0.166231,0.390865 -0.31414,0.793902 -0.514105,1.164057 -0.182036,0.336766 -0.396312,0.64682 -0.856947,0.592552 -0.141226,-0.01665 -0.384046,0.1519 -0.446087,0.300419 -0.445773,1.066848 -1.374277,1.100406 -2.31544,1.323564 z"
     display="none" /><rect
     transform="rotate(1.859)"
     ry="5.5273209"
     y="44.131947"
     x="22.234272"
     height="11.054642"
     width="49.546562"
     id="rect1622"
     style="fill:none;stroke:#333333;stroke-width:1.547;stroke-miterlimit:4;stroke-dasharray:none" /><path
     style="fill:#ffffff;stroke:#333333;stroke-width:1.00595403;stroke-miterlimit:4;stroke-dasharray:none;stroke-opacity:1"
     sodipodi:nodetypes="cccccccccccccccccccccaczcaaazzcccc"
     inkscape:connector-curvature="0"
     id="path6"
     d="m 47.247562,43.859764 c 0.05232,0.766431 -0.03442,1.476396 -0.951096,1.322152 0.33099,2.885236 -0.800927,2.196888 -2.465935,4.349163 -0.01988,-1.065621 0.373284,-2.30646 -0.07544,-3.415591 -0.05433,0.09381 -0.091,0.13303 -0.102477,0.180855 -0.211031,0.869654 -0.359786,1.945551 -0.620399,2.793399 -0.419409,1.36391 -0.641385,2.738171 -0.31902,4.198397 -0.0268,0.02064 -0.459447,-0.279967 -0.486244,-0.259422 -0.298155,-0.272445 -0.621421,-1.12731 -0.88401,-1.367291 -0.109582,0.410554 0.0177,1.374195 0.0177,1.374195 0,0 -1.455432,-1.710744 -1.845173,-2.26031 -0.147894,-0.208479 -0.309697,-0.409605 -0.48721,-0.584101 -0.895081,-0.879823 -1.728612,-1.990293 -1.801544,-3.268809 -0.03533,-0.617694 -0.419026,1.192354 -0.394984,1.54976 0.03051,0.452342 -0.144793,0.820852 -0.52597,1.001453 -0.44898,0.212585 -0.910745,0.259108 -1.322621,-0.115287 -0.322898,-0.29343 -0.404262,-0.709353 -0.345267,-1.224327 0.101375,0.08335 0.151797,0.142483 0.212547,0.171308 0.148157,0.0698 0.333089,0.213505 0.443399,0.162979 0.120859,-0.05513 0.245102,-0.294988 0.24126,-0.454209 -0.006,-0.249641 -0.06364,-0.546717 -0.194026,-0.741011 -0.965219,-1.43708 -0.640773,-3.348021 -1.428748,-4.830925 -0.392977,-0.739549 -1.328187,-0.03952 -1.597905,-1.938803 -0.11721,-0.825598 0.274462,-1.65196 -0.307393,-2.775806 -0.581854,-1.123847 -1.475144,-0.50799 -1.042562,-2.46597 -0.123931,-0.137582 4.118533,2.24894 6.389909,2.63527 1.293534,0.220012 2.704915,0.255166 3.930551,-0.213291 1.143523,-0.437072 2.066715,-1.369649 2.865051,-2.297731 0.771109,-0.896431 1.970412,-2.436311 1.780825,-3.067971 -0.189588,-0.631661 0.724883,1.593812 0.796295,3.021932 0.07142,1.428118 -0.02917,4.689054 -0.469575,6.56816 -0.29424,1.256123 -0.588766,0.311705 -0.0027,1.261579 0.284864,0.462567 0.494606,0.769665 0.992786,0.690252 z" /><circle
     style="fill:#484537;stroke-width:0.6902737"
     id="circle1103"
     r="0.69855696"
     cy="40.300793"
     cx="26.570105"
     transform="rotate(-14.999999)" /><circle
     style="fill:#484537;stroke-width:0.6902737"
     id="circle1109"
     r="0.69855696"
     cy="40.285545"
     cx="28.993641"
     transform="rotate(-14.999999)" /></svg>